<svg xmlns="http://www.w3.org/2000/svg" aria-hidden="true" style="position:absolute;width:0;height:0;overflow:hidden">
  <defs>
    <symbol id="icon-Air" viewBox="0 0 137 32">
      <path fill="#f2f4f7" d="M16 0h105.455c8.837 0 16 7.163 16 16s-7.163 16-16 16H16C7.163 32 0 24.837 0 16S7.163 0 16 0z" style="fill:var(--color1, #f2f4f7)"/>
      <path fill="none" stroke="#101828" stroke-linecap="round" stroke-linejoin="round" stroke-width="1.091" d="M26.078 9.247H14.649a1.038 1.038 0 0 0-1.039 1.039v5.195a1.038 1.038 0 0 0 1.039 1.039h11.429a1.038 1.038 0 0 0 1.039-1.039v-5.195a1.038 1.038 0 0 0-1.039-1.039z" style="stroke:var(--color2, #101828)"/>
      <path fill="none" stroke="#101828" stroke-linecap="round" stroke-linejoin="round" stroke-width="1.091" d="M24.52 16.52v-2.078a1.038 1.038 0 0 0-1.039-1.039h-6.234a1.038 1.038 0 0 0-1.039 1.039v2.078m-.52 5.194h.104a1.455 1.455 0 0 0 1.455-1.455v-1.143m7.792 2.598h-.104a1.455 1.455 0 0 1-1.455-1.455v-1.143m-3.116 3.637v-3.636" style="stroke:var(--color2, #101828)"/>
      <path fill="#101828" d="M37.701 11.901v8.463H36.42v-7.182h-.05l-2.025 1.322v-1.223l2.112-1.38h1.244zm6.199 8.463h-1.355l3.045-8.463h1.475l3.045 8.463h-1.355l-2.393-6.926h-.066l-2.397 6.926zm.228-3.314h4.397v1.074h-4.397V17.05zm7.163 3.314v-6.347h1.236v6.347h-1.236zm.624-7.327a.788.788 0 0 1-.554-.215.701.701 0 0 1-.227-.521c0-.204.076-.377.227-.521.154-.146.339-.219.554-.219s.398.073.55.219a.685.685 0 0 1 .231.521.694.694 0 0 1-.231.521.772.772 0 0 1-.55.215zm2.273 7.327v-6.347h1.194v1.008h.066c.116-.342.32-.61.612-.806a1.753 1.753 0 0 1 1-.298 5.917 5.917 0 0 1 .525.029v1.182a2.118 2.118 0 0 0-.264-.045 2.559 2.559 0 0 0-.38-.029c-.292 0-.552.062-.781.186a1.381 1.381 0 0 0-.735 1.244v3.876h-1.236zm10.22.128c-.614 0-1.143-.139-1.587-.417-.441-.281-.78-.668-1.017-1.161s-.355-1.058-.355-1.694c0-.645.121-1.213.364-1.707.242-.496.584-.883 1.025-1.161s.96-.417 1.558-.417c.482 0 .912.09 1.289.269.377.176.682.424.913.744.234.32.373.693.417 1.12h-1.202a1.44 1.44 0 0 0-.455-.769c-.234-.215-.548-.322-.942-.322-.344 0-.646.091-.905.273a1.75 1.75 0 0 0-.599.769c-.143.331-.215.722-.215 1.174 0 .463.07.862.211 1.198s.339.596.595.781c.259.184.563.277.913.277.234 0 .446-.043.636-.128.193-.088.354-.214.484-.376.132-.163.225-.358.277-.587h1.202c-.044.41-.178.777-.401 1.099s-.522.576-.897.76c-.372.184-.808.277-1.31.277zm6.602 0c-.595 0-1.114-.136-1.558-.409s-.788-.654-1.033-1.145c-.245-.49-.368-1.063-.368-1.719 0-.658.123-1.234.368-1.727s.59-.876 1.033-1.149c.444-.273.963-.409 1.558-.409s1.114.136 1.558.409c.443.273.788.656 1.033 1.149s.368 1.069.368 1.727c0 .656-.123 1.229-.368 1.719s-.59.872-1.033 1.145c-.444.273-.963.409-1.558.409zm.004-1.037c.386 0 .705-.102.959-.306s.441-.475.562-.814c.124-.339.186-.712.186-1.12 0-.405-.062-.777-.186-1.116-.121-.342-.309-.616-.562-.822s-.573-.31-.959-.31c-.388 0-.711.103-.967.31a1.855 1.855 0 0 0-.566.822 3.299 3.299 0 0 0-.182 1.116c0 .408.061.781.182 1.12.124.339.313.61.566.814.256.204.579.306.967.306zm5.569-2.86v3.769h-1.236v-6.347h1.186v1.033h.079c.145-.336.375-.606.686-.81.314-.204.709-.306 1.185-.306.433 0 .812.091 1.137.273.325.179.577.446.756.802s.268.795.268 1.318v4.037h-1.236v-3.888c0-.46-.12-.82-.359-1.078-.24-.262-.569-.393-.988-.393-.287 0-.541.062-.764.186a1.34 1.34 0 0 0-.525.545c-.127.237-.19.523-.19.86zm8.096 3.893c-.513 0-.97-.131-1.372-.393-.399-.265-.713-.64-.942-1.128-.226-.49-.339-1.078-.339-1.764s.114-1.273.343-1.76c.232-.488.548-.861.951-1.12s.858-.388 1.368-.388c.394 0 .711.066.951.198.242.129.43.281.561.455.135.174.24.326.314.459h.075v-3.145h1.235v8.463h-1.207v-.988h-.103a3.3 3.3 0 0 1-.322.463c-.137.174-.328.325-.57.455s-.556.194-.942.194zm.272-1.054c.355 0 .655-.094.9-.281.248-.19.436-.453.562-.789.129-.336.194-.727.194-1.174 0-.441-.063-.826-.19-1.157s-.313-.588-.558-.773c-.246-.185-.548-.277-.909-.277-.372 0-.682.096-.93.289s-.435.456-.562.789a3.216 3.216 0 0 0-.185 1.128c0 .424.063.806.19 1.145s.314.608.562.806c.25.196.559.293.926.293zm4.635.93v-6.347h1.236v6.347h-1.236zm.624-7.327a.784.784 0 0 1-.553-.215.698.698 0 0 1-.228-.521.69.69 0 0 1 .228-.521c.154-.146.339-.219.553-.219s.398.073.55.219a.685.685 0 0 1 .231.521.694.694 0 0 1-.231.521.774.774 0 0 1-.55.215zm5.237.98v.992H91.98v-.992h3.467zm-2.537-1.521h1.236V18.5c0 .24.036.42.107.541.072.118.164.2.277.244.116.041.241.062.376.062.099 0 .186-.007.26-.021l.174-.033.223 1.021a2.45 2.45 0 0 1-.801.133c-.325.006-.628-.052-.909-.174s-.508-.308-.681-.562c-.174-.253-.26-.572-.26-.955v-6.26zm3.904 7.868v-6.347h1.235v6.347h-1.235zm.624-7.327a.787.787 0 0 1-.554-.215.701.701 0 0 1-.227-.521c0-.204.076-.377.227-.521.154-.146.339-.219.554-.219s.398.073.549.219a.685.685 0 0 1 .231.521.694.694 0 0 1-.231.521.771.771 0 0 1-.549.215zm4.947 7.455c-.595 0-1.114-.136-1.558-.409s-.788-.654-1.033-1.145c-.246-.49-.368-1.063-.368-1.719 0-.658.122-1.234.368-1.727s.589-.876 1.033-1.149.963-.409 1.558-.409c.595 0 1.114.136 1.558.409s.788.656 1.033 1.149c.245.493.367 1.069.367 1.727 0 .656-.122 1.229-.367 1.719s-.59.872-1.033 1.145-.963.409-1.558.409zm.004-1.037c.385 0 .705-.102.959-.306s.441-.475.562-.814c.124-.339.185-.712.185-1.12a3.25 3.25 0 0 0-.185-1.116c-.121-.342-.309-.616-.562-.822s-.573-.31-.959-.31c-.388 0-.711.103-.967.31a1.855 1.855 0 0 0-.566.822 3.299 3.299 0 0 0-.182 1.116c0 .408.06.781.182 1.12.124.339.313.61.566.814.257.204.579.306.967.306zm5.569-2.86v3.769h-1.235v-6.347h1.185v1.033h.079c.146-.336.375-.606.686-.81.314-.204.71-.306 1.186-.306.433 0 .812.091 1.137.273.325.179.577.446.756.802s.269.795.269 1.318v4.037h-1.236v-3.888c0-.46-.12-.82-.359-1.078-.24-.262-.569-.393-.988-.393-.287 0-.542.062-.765.186-.22.124-.395.306-.524.545-.127.237-.191.523-.191.86zm8.454 3.897c-.625 0-1.164-.134-1.615-.401a2.72 2.72 0 0 1-1.041-1.136c-.242-.49-.364-1.065-.364-1.723 0-.65.121-1.223.364-1.719a2.82 2.82 0 0 1 1.025-1.161c.441-.278.956-.417 1.545-.417.359 0 .705.059 1.041.178s.638.304.905.558c.268.253.478.583.633.988.154.402.231.891.231 1.467v.438h-5.046v-.926h3.835c0-.325-.066-.613-.199-.864a1.499 1.499 0 0 0-.558-.599 1.558 1.558 0 0 0-.834-.219c-.348 0-.65.085-.909.256a1.717 1.717 0 0 0-.596.661c-.137.27-.207.563-.207.88v.723c0 .424.075.785.223 1.083.151.298.362.525.632.682.271.154.585.231.947.231.233 0 .447-.033.64-.099a1.332 1.332 0 0 0 .822-.806l1.169.211a2.128 2.128 0 0 1-.504.905 2.45 2.45 0 0 1-.905.599c-.361.14-.772.211-1.236.211zm4.095-.128v-6.347h1.194v1.008h.066c.116-.342.319-.61.612-.806a1.753 1.753 0 0 1 1-.298 5.917 5.917 0 0 1 .525.029v1.182a2.049 2.049 0 0 0-.264-.045 2.57 2.57 0 0 0-.38-.029 1.61 1.61 0 0 0-.781.186 1.381 1.381 0 0 0-.735 1.244v3.876h-1.236z" style="fill:var(--color2, #101828)"/>
    </symbol>
    <symbol id="icon-AC" viewBox="0 0 63 32">
      <path fill="#f2f4f7" d="M16 0h31.273c8.837 0 16 7.163 16 16s-7.163 16-16 16H16C7.163 32 0 24.837 0 16S7.163 0 16 0z" style="fill:var(--color1, #f2f4f7)"/>
      <path fill="#101828" d="M20.138 10.182c-.682 0-1.344.233-1.871.659s-.889 1.019-1.023 1.677l-.053.261a.445.445 0 0 0 .353.541c.06.012.121.012.181-.001s.116-.036.167-.07a.44.44 0 0 0 .189-.296l.054-.26c.101-.488.382-.923.789-1.219a2.067 2.067 0 0 1 2.726.267 2 2 0 0 1 .531 1.348c0 .534-.215 1.047-.599 1.424s-.904.59-1.446.59h-6.591a.456.456 0 0 0-.321.131.445.445 0 0 0 .321.763h6.591c.771-.019 1.504-.333 2.043-.877s.84-1.272.84-2.032-.301-1.489-.839-2.032a2.975 2.975 0 0 0-2.042-.878zm5.226 4.028c-.603 0-1.181.236-1.607.655s-.666.989-.666 1.582c0 .119.048.233.133.316a.462.462 0 0 0 .642 0 .445.445 0 0 0 .133-.316c0-.266.08-.525.23-.746s.363-.393.612-.494a1.378 1.378 0 0 1 1.486.291 1.33 1.33 0 0 1-.207 2.066 1.375 1.375 0 0 1-.758.226H13.544a.456.456 0 0 0-.321.131.445.445 0 0 0 .321.764h8.864c.301.001.59.119.803.329a1.107 1.107 0 0 1-.003 1.583 1.16 1.16 0 0 1-1.546.059 1.13 1.13 0 0 1-.392-.675l-.005-.027a.444.444 0 0 0-.344-.375.46.46 0 0 0-.551.344.445.445 0 0 0-.001.178l.005.027c.081.473.329.902.701 1.211a2.082 2.082 0 0 0 2.777-.11c.384-.377.601-.89.602-1.425a1.98 1.98 0 0 0-.345-1.119h1.254c.603 0 1.181-.236 1.607-.655s.666-.989.666-1.582c0-.594-.239-1.163-.666-1.582s-1.004-.655-1.607-.655z" style="fill:var(--color2, #101828)"/>
      <path fill="#101828" d="m20.138 10.182.09-3.635-.045-.001h-.045l.001 3.636zm-2.894 2.336-3.563-.725-.001.006 3.565.719zm-.053.261 3.536.848.015-.064.013-.065-3.565-.719zm.891.176-3.562-.733-.014.067-.011.067 3.587.599zm.053-.261zm4.047.396h3.636v-.009l-3.636.009zm-2.046 2.015v3.636h.002l-.002-3.636zm-7.045.447zm7.045.448v3.636h.044l.044-.001L20.136 16zm3.864.448zm-10.909 1.79zm9.318.447.007-3.636h-.007v3.636zm-.005 2.238.007-3.636h-.01l.003 3.636zm-1.133-.942-3.585.607.001.006.001.006 3.583-.619zm-.005-.026-3.602.496.008.056.009.055 3.585-.607zm-.896.146 3.585-.607-.009-.054-.011-.054-3.565.715zm.005.027-3.585.607.001.006 3.584-.613zm2.029 1.69.002-3.636h-.002l.001 3.636zm2.051-2.014 3.636.007v-.007h-3.636zm-.345-1.119v-3.636h-6.87l3.863 5.681 3.007-2.045zm-3.973-12.14a6.609 6.609 0 0 0-4.154 1.466l4.568 5.659a.658.658 0 0 1-.412.148l-.002-7.273zm-4.154 1.466a6.537 6.537 0 0 0-2.303 3.782l7.127 1.45a.736.736 0 0 1-.256.427l-4.568-5.659zm-2.304 3.788-.053.261 7.129 1.438.053-.261-7.129-1.438zm-.024.133a4.072 4.072 0 0 0-.052 1.649l7.165-1.245c.075.429.061.869-.041 1.292l-7.072-1.696zm-.052 1.648c.095.547.301 1.068.602 1.53l6.092-3.973c.235.361.397.768.471 1.197l-7.165 1.245zm.602 1.53c.301.462.691.856 1.145 1.16l4.055-6.037c.352.237.657.543.892.904l-6.092 3.973zm1.144 1.16a4.09 4.09 0 0 0 1.492.618l1.405-7.136c.412.081.806.244 1.158.48l-4.055 6.037zm1.493.619a4.091 4.091 0 0 0 1.609-.005L17 9.757a3.172 3.172 0 0 1 1.247-.004l-1.405 7.136zm1.609-.005a4.095 4.095 0 0 0 1.488-.628l-4.094-6.011A3.186 3.186 0 0 1 17 9.757l1.451 7.127zm1.488-.628a4.083 4.083 0 0 0 1.137-1.168l-6.118-3.933c.233-.363.535-.671.886-.91l4.094 6.011zm1.137-1.168c.298-.464.501-.986.592-1.534l-7.173-1.198a3.2 3.2 0 0 1 .463-1.201l6.118 3.933zm.567-1.4.054-.261-7.123-1.467-.054.261 7.123 1.467zm.054-.259a1.629 1.629 0 0 1-.635.989l-4.275-5.884a5.639 5.639 0 0 0-2.213 3.426l7.123 1.469zm-.635.989c-.317.23-.7.331-1.076.294l.708-7.238a5.71 5.71 0 0 0-3.907 1.06l4.275 5.884zm-1.076.294a1.581 1.581 0 0 1-1.008-.504l5.347-4.93a5.693 5.693 0 0 0-3.631-1.804l-.708 7.238zm-1.008-.505a1.64 1.64 0 0 1-.432-1.108l7.273-.018a5.632 5.632 0 0 0-1.493-3.803l-5.347 4.93zm-.433-1.117c0-.448.181-.867.485-1.166l5.104 5.181a5.636 5.636 0 0 0 1.684-4.015h-7.273zm.486-1.166a1.57 1.57 0 0 1 1.104-.455l.003 7.273a5.703 5.703 0 0 0 3.997-1.636l-5.104-5.181zm1.105-.455h-6.591v7.273h6.591v-7.273zm-6.591 0a4.098 4.098 0 0 0-2.873 1.176l5.103 5.182a3.177 3.177 0 0 1-2.23.914v-7.273zm-2.872 1.176a4.08 4.08 0 0 0-1.218 2.908h7.273c0 .864-.349 1.681-.952 2.275l-5.103-5.182zm-1.218 2.907c0 1.101.445 2.146 1.218 2.908l5.103-5.182c.603.594.952 1.411.952 2.275H9.455zm1.218 2.908a4.096 4.096 0 0 0 2.873 1.176v-7.273c.826 0 1.629.322 2.23.914l-5.103 5.182zm2.872 1.176h6.591v-7.273h-6.591v7.273zm6.679-.001a6.61 6.61 0 0 0 4.537-1.952l-5.165-5.12a.66.66 0 0 1 .452-.199l.175 7.271zm4.537-1.951a6.52 6.52 0 0 0 1.894-4.591l-7.273-.002a.75.75 0 0 1 .213-.527l5.165 5.12zm1.895-4.591a6.522 6.522 0 0 0-1.892-4.592l-5.168 5.117a.752.752 0 0 1-.213-.527l7.273.002zm-1.892-4.592a6.613 6.613 0 0 0-4.536-1.954l-.18 7.271a.658.658 0 0 1-.452-.199l5.168-5.117zm.6 2.072a5.923 5.923 0 0 0-4.158 1.701l5.103 5.182c-.26.256-.601.39-.944.39v-7.273zm-4.159 1.701a5.858 5.858 0 0 0-1.751 4.174h7.273c0 .389-.158.751-.419 1.009l-5.103-5.182zm-1.75 4.174c0 1.101.445 2.146 1.218 2.908l5.103-5.182c.603.594.952 1.411.952 2.275h-7.273zm1.218 2.907a4.096 4.096 0 0 0 2.873 1.176v-7.273c.826 0 1.629.322 2.23.914l-5.103 5.182zm2.872 1.177a4.098 4.098 0 0 0 2.873-1.176l-5.103-5.182a3.177 3.177 0 0 1 2.23-.914v7.273zm2.873-1.177a4.08 4.08 0 0 0 1.218-2.908h-7.273c0-.864.349-1.681.952-2.275l5.103 5.182zm1.218-2.907c0 .466-.141.917-.398 1.296L21.22 13.66a4.96 4.96 0 0 0-.857 2.788h7.273zm-.397 1.296a2.276 2.276 0 0 1-1.024.831l-2.746-6.734c-.907.37-1.692 1-2.248 1.82l6.018 4.084zm-1.024.83a2.25 2.25 0 0 1-1.284.125l1.398-7.137a5.016 5.016 0 0 0-2.86.278l2.746 6.734zm-1.284.125a2.266 2.266 0 0 1-1.154-.61l5.103-5.182a5.007 5.007 0 0 0-2.551-1.345l-1.398 7.137zm-1.154-.61a2.3 2.3 0 0 1-.64-1.184l7.129-1.44a4.975 4.975 0 0 0-1.386-2.559l-5.103 5.182zm-.64-1.183a2.315 2.315 0 0 1 .135-1.354l6.704 2.82a4.953 4.953 0 0 0 .29-2.906l-7.129 1.44zm.135-1.355c.179-.425.478-.78.851-1.025l3.997 6.076a4.98 4.98 0 0 0 1.855-2.23l-6.704-2.82zm.851-1.025a2.256 2.256 0 0 1 1.241-.372v7.273c.976 0 1.936-.285 2.756-.825l-3.997-6.076zm1.241-.372H13.546v7.273h11.818v-7.273zm-11.819 0a4.098 4.098 0 0 0-2.873 1.176l5.103 5.182a3.177 3.177 0 0 1-2.23.914v-7.273zm-2.872 1.176a4.08 4.08 0 0 0-1.218 2.908h7.273c0 .864-.349 1.681-.952 2.275l-5.103-5.182zm-1.218 2.908c0 1.101.445 2.146 1.218 2.908l5.103-5.182c.603.594.952 1.411.952 2.275H9.455zm1.218 2.907a4.096 4.096 0 0 0 2.873 1.176v-7.273c.826 0 1.629.322 2.23.914l-5.103 5.182zm2.872 1.177h8.864v-7.273h-8.864v7.273zm8.857 0a2.487 2.487 0 0 1-1.746-.721l5.113-5.172a4.786 4.786 0 0 0-3.352-1.38l-.014 7.273zm-1.747-.721a2.53 2.53 0 0 1-.749-1.802l7.273.015a4.745 4.745 0 0 0-1.411-3.385l-5.113 5.172zm-.748-1.802c.001-.686.28-1.332.756-1.798l5.092 5.192a4.747 4.747 0 0 0 1.425-3.379l-7.273-.015zm.756-1.798a2.491 2.491 0 0 1 1.749-.714l-.014 7.273a4.783 4.783 0 0 0 3.357-1.366l-5.092-5.192zm1.739-.714c.572 0 1.134.198 1.584.573l-4.647 5.594a4.797 4.797 0 0 0 3.068 1.106l-.005-7.273zm1.584.572c.452.375.765.906.868 1.503L17.687 20.6a4.763 4.763 0 0 0 1.652 2.853l4.647-5.594zm.87 1.516-.005-.027-7.171 1.214.005.027 7.171-1.214zm.013.084a4.087 4.087 0 0 0-.546-1.547l-6.231 3.75a3.191 3.191 0 0 1-.427-1.211l7.205-.991zm-.546-1.547a4.081 4.081 0 0 0-1.1-1.199l-4.274 5.884a3.18 3.18 0 0 1-.857-.935l6.231-3.75zm-1.1-1.2a4.094 4.094 0 0 0-1.465-.672l-1.672 7.078a3.176 3.176 0 0 1-1.138-.522l4.274-5.884zm-1.465-.672a4.107 4.107 0 0 0-1.604-.056l1.175 7.177a3.173 3.173 0 0 1-1.243-.043l1.672-7.078zm-1.604-.055a4.095 4.095 0 0 0-1.507.567l3.851 6.169a3.165 3.165 0 0 1-1.169.44l-1.175-7.177zm-1.507.567a4.096 4.096 0 0 0-1.179 1.116l5.949 4.183c-.247.351-.56.646-.919.87l-3.851-6.169zm-1.179 1.117c-.316.45-.54.96-.654 1.503l7.115 1.505a3.2 3.2 0 0 1-.512 1.176l-5.949-4.183zm-.655 1.502a4.069 4.069 0 0 0-.009 1.645l7.131-1.43c.085.426.083.865-.007 1.289l-7.115-1.505zm-.028 1.537.005.027 7.171-1.214-.005-.027-7.171 1.214zm.005.033a5.658 5.658 0 0 0 1.958 3.393l4.653-5.589c.288.239.49.581.557.971l-7.169 1.226zm1.959 3.393a5.719 5.719 0 0 0 3.657 1.321l-.001-7.273c.358 0 .712.124.998.363l-4.653 5.589zm3.654 1.321a5.7 5.7 0 0 0 3.998-1.632l-5.097-5.188a1.57 1.57 0 0 1 1.102-.453l-.003 7.273zm3.998-1.632a5.64 5.64 0 0 0 1.69-4.012l-7.273-.013c.001-.447.182-.864.486-1.163l5.097 5.188zm1.69-4.019a5.614 5.614 0 0 0-.974-3.163l-6.014 4.089a1.654 1.654 0 0 1-.285-.926h7.273zm-3.981 2.518h1.254v-7.273H24.11v7.273zm1.254 0a5.923 5.923 0 0 0 4.158-1.701l-5.103-5.182c.26-.256.601-.39.944-.39v7.273zm4.158-1.701a5.857 5.857 0 0 0 1.751-4.173H24c0-.389.158-.751.419-1.009l5.103 5.182zm1.751-4.173a5.861 5.861 0 0 0-1.751-4.174l-5.103 5.182A1.414 1.414 0 0 1 24 16.447h7.273zm-1.751-4.174a5.927 5.927 0 0 0-4.158-1.701v7.273c-.344 0-.684-.134-.944-.39l5.103-5.182zm5.787 8.09h-1.355l3.045-8.463h1.475l3.045 8.463h-1.355l-2.393-6.926h-.066l-2.397 6.926zm.228-3.314h4.397v1.074h-4.397V17.05zm13.836-2.397h-1.289a1.978 1.978 0 0 0-.773-1.26 2.16 2.16 0 0 0-.657-.331 2.58 2.58 0 0 0-.764-.112c-.488 0-.924.123-1.31.368-.383.245-.686.605-.909 1.079-.22.474-.331 1.052-.331 1.736 0 .689.11 1.27.331 1.744.223.474.528.832.913 1.074s.82.364 1.302.364c.267 0 .521-.036.76-.107.242-.074.461-.183.657-.326a1.986 1.986 0 0 0 .781-1.244l1.289.004a3.443 3.443 0 0 1-.401 1.149 3.195 3.195 0 0 1-.756.901c-.306.251-.656.445-1.05.583s-.824.207-1.289.207c-.733 0-1.386-.174-1.959-.521-.573-.35-1.025-.85-1.355-1.5-.328-.65-.492-1.426-.492-2.326 0-.904.165-1.679.496-2.326.331-.65.782-1.149 1.355-1.496.573-.35 1.224-.525 1.955-.525.449 0 .868.065 1.256.194a3.33 3.33 0 0 1 1.054.562c.311.245.569.545.773.901.204.353.342.756.413 1.211z" style="fill:var(--color2, #101828)"/>
    </symbol>
    <symbol id="icon-Adults" viewBox="0 0 92 32">
      <path fill="#f2f4f7" d="M16 0h59.636c8.837 0 16 7.163 16 16s-7.163 16-16 16H16C7.163 32 0 24.837 0 16S7.163 0 16 0z" style="fill:var(--color1, #f2f4f7)"/>
      <path fill="#101828" d="M17.212 19.697h-2c-.121 0-.182-.061-.242-.121s-.121-.182-.061-.303a2.4 2.4 0 0 1 2.303-1.636c1.273 0 2.303-1.091 2.303-2.364s-1.03-2.485-2.303-2.485-2.303 1.091-2.303 2.424c0 .606.242 1.212.606 1.636-.788.424-1.394 1.091-1.758 2-.121.424-.061.97.242 1.394s.727.667 1.212.667h2c.364 0 .606-.242.606-.606s-.242-.606-.606-.606zm-1.091-4.485c0-.667.485-1.152 1.091-1.152s1.091.545 1.091 1.152c0 .667-.485 1.152-1.091 1.152s-1.091-.545-1.091-1.152z" style="fill:var(--color2, #101828)"/>
      <path fill="#101828" d="M26.97 18.485A4.542 4.542 0 0 0 24.728 16c.545-.485.848-1.212.848-2.061 0-1.576-1.212-2.848-2.667-2.848s-2.667 1.273-2.667 2.848c0 .788.303 1.515.849 2.061a4.538 4.538 0 0 0-2.242 2.485c-.303.545-.182 1.151.121 1.636s.849.727 1.394.727h5.03a1.78 1.78 0 0 0 1.394-.727 1.597 1.597 0 0 0 .182-1.636zM21.394 14c0-.909.667-1.636 1.455-1.636s1.455.727 1.455 1.636-.667 1.636-1.455 1.636-1.455-.788-1.455-1.636zm4.364 5.455c-.061.061-.182.242-.364.242h-5.03c-.242 0-.364-.182-.364-.242-.061-.061-.182-.303-.061-.545.485-1.273 1.697-2.121 2.97-2.121s2.485.849 2.97 2.121a.664.664 0 0 1-.121.545zm8.852.909v-.926l2.864-2.967c.306-.322.558-.605.756-.847.201-.245.351-.478.45-.698s.149-.455.149-.702c0-.281-.066-.523-.198-.727a1.294 1.294 0 0 0-.541-.475 1.721 1.721 0 0 0-.773-.169c-.303 0-.568.062-.793.186s-.4.299-.521.525c-.121.226-.182.49-.182.793h-1.219c0-.515.118-.966.355-1.351s.562-.685.975-.897a3.007 3.007 0 0 1 1.409-.322c.532 0 1 .106 1.405.318.408.209.726.496.955.86.229.361.343.769.343 1.223 0 .314-.059.621-.178.921-.116.3-.318.635-.607 1.004-.289.366-.691.811-1.207 1.335l-1.682 1.76v.062h3.81v1.095h-5.57zm12.079.14c-.402 0-.766-.074-1.091-.223a1.845 1.845 0 0 1-.773-.657c-.187-.287-.281-.638-.281-1.054 0-.358.069-.653.207-.884s.324-.415.558-.55c.234-.135.496-.237.785-.306s.584-.121.884-.157l.926-.107c.237-.03.409-.078.517-.145s.161-.174.161-.322v-.029c0-.361-.102-.64-.306-.839-.201-.198-.501-.298-.901-.298-.416 0-.744.092-.983.277a1.483 1.483 0 0 0-.492.607l-1.161-.264c.138-.386.339-.697.603-.934.267-.24.574-.413.921-.521.347-.11.712-.165 1.095-.165.253 0 .522.03.806.091.286.058.554.165.802.322.251.157.456.382.616.674.16.289.24.665.24 1.128v4.215h-1.207v-.868h-.05c-.08.16-.2.317-.359.471s-.365.282-.616.384a2.389 2.389 0 0 1-.901.153zm.269-.992c.342 0 .634-.067.876-.202.245-.135.431-.311.558-.529.129-.22.194-.456.194-.707v-.818a.647.647 0 0 1-.256.124 4.049 4.049 0 0 1-.426.095c-.16.025-.315.048-.467.07l-.38.05c-.24.03-.459.081-.657.153a1.126 1.126 0 0 0-.471.31c-.116.132-.174.309-.174.529 0 .306.113.537.339.694.226.154.514.231.864.231zm6.885.976c-.512 0-.97-.131-1.372-.393-.399-.265-.713-.64-.942-1.128-.226-.49-.339-1.078-.339-1.764s.114-1.273.343-1.76c.231-.488.548-.861.95-1.12s.858-.388 1.368-.388c.394 0 .711.066.95.198.242.129.43.281.562.455.135.174.24.326.314.459h.074v-3.145h1.236v8.463H55.78v-.988h-.103a3.3 3.3 0 0 1-.322.463c-.138.174-.328.325-.57.455s-.556.194-.942.194zm.273-1.054c.355 0 .656-.094.901-.281.248-.19.435-.453.562-.789.129-.336.194-.727.194-1.174 0-.441-.063-.826-.19-1.157s-.313-.588-.558-.773c-.245-.185-.548-.277-.909-.277-.372 0-.682.096-.93.289s-.435.456-.562.789a3.215 3.215 0 0 0-.186 1.128c0 .424.063.806.19 1.145s.314.608.562.806c.251.196.559.293.926.293zm8.656-1.703v-3.715h1.24v6.347h-1.215v-1.099h-.066c-.146.339-.38.621-.702.847-.32.223-.718.335-1.194.335-.408 0-.769-.09-1.083-.269a1.894 1.894 0 0 1-.736-.806c-.176-.355-.264-.795-.264-1.318v-4.037h1.236v3.888c0 .433.12.777.36 1.033s.551.384.934.384c.231 0 .461-.058.69-.174.231-.116.423-.291.574-.525.154-.234.23-.532.227-.893zm4.135-5.83v8.463h-1.236v-8.463h1.236zm4.625 2.116v.992h-3.467v-.992h3.467zm-2.537-1.521h1.236V18.5c0 .24.036.42.107.541.072.118.164.2.277.244.116.041.241.062.376.062.099 0 .186-.007.26-.021l.174-.033.223 1.021a2.458 2.458 0 0 1-.802.133c-.325.006-.628-.052-.909-.174s-.508-.308-.682-.562c-.174-.253-.26-.572-.26-.955v-6.26zm8.558 3.07-1.12.198a1.325 1.325 0 0 0-.223-.409c-.099-.129-.234-.236-.404-.318s-.385-.124-.641-.124c-.35 0-.642.078-.876.236-.234.154-.351.354-.351.599 0 .212.079.383.236.512s.411.235.761.318l1.008.231c.584.135 1.02.343 1.305.624s.43.646.43 1.095c0 .38-.11.719-.33 1.017-.217.295-.522.526-.913.694-.388.168-.839.252-1.351.252-.711 0-1.29-.151-1.74-.455-.449-.306-.724-.74-.826-1.302l1.194-.182c.074.311.227.547.459.707.231.157.532.235.905.235.405 0 .729-.084.971-.252.242-.171.364-.379.364-.624a.648.648 0 0 0-.223-.5c-.145-.135-.37-.237-.673-.306l-1.074-.235c-.593-.135-1.031-.35-1.314-.645-.281-.295-.421-.668-.421-1.12 0-.375.104-.702.314-.983s.499-.5.868-.657c.369-.16.793-.24 1.269-.24.686 0 1.225.149 1.62.446.394.295.655.69.781 1.186z" style="fill:var(--color2, #101828)"/>
    </symbol>
    <symbol id="icon-Automatic" viewBox="0 0 104 32">
      <path fill="#f2f4f7" d="M16 0h72c8.837 0 16 7.163 16 16s-7.163 16-16 16H16C7.163 32 0 24.837 0 16S7.163 0 16 0z" style="fill:var(--color1, #f2f4f7)"/>
      <path fill="none" stroke="#101828" stroke-linecap="round" stroke-linejoin="round" stroke-width="1.091" d="M23.394 15.394h.909a.912.912 0 0 0 .909-.909.912.912 0 0 0-.909-.909h-.909v3.03m0 2.424v2.424H24a1.213 1.213 0 0 0 .857-2.069A1.213 1.213 0 0 0 24 19.03h-.606zm-8.485-7.272a1.213 1.213 0 0 0 2.069.857 1.213 1.213 0 0 0-.857-2.069 1.212 1.212 0 0 0-1.212 1.212z" style="stroke:var(--color2, #101828)"/>
      <path fill="none" stroke="#101828" stroke-linecap="round" stroke-linejoin="round" stroke-width="1.091" d="M16.121 12.97v1.818a.606.606 0 0 0 .607.606h1.818m-.001 0v4.242a.605.605 0 0 0 .606.606h1.818m-2.424-4.848h2.424" style="stroke:var(--color2, #101828)"/>
      <path fill="#101828" d="M35.287 20.364h-1.355l3.045-8.463h1.475l3.045 8.463h-1.355l-2.393-6.926h-.066l-2.397 6.926zm.227-3.314h4.397v1.074h-4.397V17.05zm11.127.681v-3.715h1.24v6.347h-1.215v-1.099H46.6c-.146.339-.38.621-.702.847-.32.223-.718.335-1.194.335-.408 0-.769-.09-1.083-.269a1.894 1.894 0 0 1-.736-.806c-.176-.355-.264-.795-.264-1.318v-4.037h1.236v3.888c0 .433.12.777.36 1.033s.551.384.934.384c.231 0 .461-.058.69-.174.231-.116.423-.291.574-.525.154-.234.23-.532.227-.893zm5.863-3.714v.992h-3.467v-.992h3.467zm-2.538-1.521h1.236V18.5c0 .24.036.42.107.541.072.118.164.2.277.244.116.041.241.062.376.062.099 0 .186-.007.26-.021l.174-.033.223 1.021a2.458 2.458 0 0 1-.802.133c-.325.006-.628-.052-.909-.174s-.508-.308-.682-.562c-.174-.253-.26-.572-.26-.955v-6.26zm6.51 7.996c-.595 0-1.114-.136-1.558-.409s-.788-.654-1.033-1.145c-.245-.49-.368-1.063-.368-1.719 0-.658.123-1.234.368-1.727s.59-.876 1.033-1.149c.444-.273.963-.409 1.558-.409s1.114.136 1.558.409c.444.273.788.656 1.033 1.149s.368 1.069.368 1.727c0 .656-.123 1.229-.368 1.719s-.59.872-1.033 1.145c-.444.273-.963.409-1.558.409zm.004-1.037c.386 0 .705-.102.959-.306s.441-.475.562-.814c.124-.339.186-.712.186-1.12 0-.405-.062-.777-.186-1.116-.121-.342-.309-.616-.562-.822s-.573-.31-.959-.31c-.388 0-.711.103-.967.31a1.855 1.855 0 0 0-.566.822 3.299 3.299 0 0 0-.182 1.116c0 .408.061.781.182 1.12.124.339.313.61.566.814.256.204.578.306.967.306zm4.334.909v-6.347H62v1.033h.078c.132-.35.349-.623.649-.818.3-.198.66-.298 1.078-.298.424 0 .78.099 1.066.298.289.198.503.471.64.818h.066a1.79 1.79 0 0 1 .723-.81c.331-.204.725-.306 1.182-.306.576 0 1.045.18 1.409.541.366.361.55.905.55 1.632v4.256h-1.236v-4.14c0-.43-.117-.741-.351-.934S67.34 15 67.015 15c-.402 0-.715.124-.938.372-.223.245-.335.561-.335.946v4.045h-1.231v-4.219c0-.344-.107-.621-.322-.831s-.495-.314-.839-.314c-.234 0-.45.062-.649.186a1.362 1.362 0 0 0-.475.508c-.118.218-.178.47-.178.756v3.913h-1.236zm12.131.14c-.402 0-.766-.074-1.091-.223a1.845 1.845 0 0 1-.773-.657c-.187-.287-.281-.638-.281-1.054 0-.358.069-.653.207-.884s.324-.415.558-.55c.234-.135.496-.237.785-.306s.584-.121.885-.157l.925-.107c.237-.03.409-.078.517-.145s.161-.174.161-.322v-.029c0-.361-.102-.64-.305-.839-.201-.198-.502-.298-.901-.298-.416 0-.744.092-.983.277a1.483 1.483 0 0 0-.492.607l-1.161-.264c.138-.386.339-.697.603-.934.267-.24.574-.413.922-.521.347-.11.712-.165 1.095-.165.254 0 .522.03.806.091.287.058.554.165.802.322.25.157.456.382.615.674.16.289.24.665.24 1.128v4.215h-1.207v-.868h-.049c-.08.16-.2.317-.36.471s-.365.282-.615.384a2.389 2.389 0 0 1-.901.153zm.268-.992c.342 0 .634-.067.876-.202.245-.135.431-.311.558-.529.129-.22.194-.456.194-.707v-.818a.647.647 0 0 1-.256.124 4.049 4.049 0 0 1-.426.095c-.159.025-.315.048-.467.07l-.38.05c-.24.03-.459.081-.657.153a1.126 1.126 0 0 0-.471.31c-.116.132-.174.309-.174.529 0 .306.113.537.339.694.226.154.514.231.863.231zm7.472-5.495v.992h-3.467v-.992h3.467zm-2.537-1.521h1.236V18.5c0 .24.036.42.107.541.072.118.164.2.277.244.116.041.241.062.376.062.1 0 .186-.007.26-.021l.174-.033.223 1.021a2.45 2.45 0 0 1-.802.133c-.325.006-.628-.052-.909-.174s-.508-.308-.681-.562c-.174-.253-.26-.572-.26-.955v-6.26zm3.904 7.868v-6.347h1.236v6.347h-1.236zm.624-7.327a.787.787 0 0 1-.554-.215.701.701 0 0 1-.227-.521c0-.204.076-.377.227-.521.154-.146.339-.219.554-.219s.398.073.549.219a.686.686 0 0 1 .232.521.695.695 0 0 1-.232.521.771.771 0 0 1-.549.215zm4.947 7.455c-.614 0-1.143-.139-1.587-.417-.441-.281-.78-.668-1.016-1.161s-.356-1.058-.356-1.694c0-.645.121-1.213.364-1.707.242-.496.584-.883 1.025-1.161s.96-.417 1.558-.417c.482 0 .912.09 1.289.269.377.176.681.424.913.744.234.32.373.693.417 1.12h-1.202a1.434 1.434 0 0 0-.455-.769c-.234-.215-.548-.322-.942-.322a1.53 1.53 0 0 0-.905.273 1.75 1.75 0 0 0-.599.769c-.143.331-.215.722-.215 1.174 0 .463.071.862.211 1.198s.339.596.595.781c.259.184.564.277.913.277.234 0 .446-.043.636-.128.193-.088.353-.214.483-.376.132-.163.225-.358.277-.587h1.202c-.044.41-.177.777-.401 1.099s-.521.576-.897.76c-.372.184-.808.277-1.31.277z" style="fill:var(--color2, #101828)"/>
    </symbol>
    <symbol id="icon-beds" viewBox="0 0 83 32">
      <path fill="#f2f4f7" d="M16 0h50.909c8.837 0 16 7.163 16 16s-7.163 16-16 16H16C7.163 32 0 24.837 0 16S7.163 0 16 0z" style="fill:var(--color1, #f2f4f7)"/>
      <path fill="none" stroke="#101828" stroke-linecap="round" stroke-linejoin="round" stroke-width="1.018" d="M14.455 20.545v-3.182a1.82 1.82 0 0 1 1.818-1.818h8.182a1.82 1.82 0 0 1 1.818 1.818v3.182m-2.273-5h-8.182V12.59a1.141 1.141 0 0 1 1.137-1.137h6.818a1.141 1.141 0 0 1 1.137 1.137v2.955h-.909z" style="stroke:var(--color2, #101828)"/>
      <path fill="none" stroke="#101828" stroke-linecap="round" stroke-linejoin="round" stroke-width="1.018" d="M14.455 20.545v-.227a.685.685 0 0 1 .682-.682h10.455a.685.685 0 0 1 .682.682v.227m-10.001-5v-.455a.914.914 0 0 1 .909-.909h2.273a.914.914 0 0 1 .909.909m0 .001v.455m0-.455a.914.914 0 0 1 .909-.909h2.273a.914.914 0 0 1 .909.909v.455" style="stroke:var(--color2, #101828)"/>
      <path fill="#101828" d="M37.553 11.901v8.463h-1.281v-7.182h-.05l-2.025 1.322v-1.223l2.112-1.38h1.244zm5.485 8.463v-8.463h1.236v3.145h.074c.072-.132.175-.285.31-.459s.322-.325.562-.455c.24-.132.556-.198.95-.198.512 0 .97.129 1.372.388s.718.632.946 1.12c.231.488.347 1.074.347 1.76s-.114 1.274-.343 1.764c-.229.488-.543.864-.942 1.128-.4.262-.855.393-1.368.393-.386 0-.701-.065-.946-.194-.242-.129-.432-.281-.57-.455s-.244-.328-.318-.463h-.103v.988h-1.207zm1.21-3.174c0 .446.065.837.194 1.174s.317.599.562.789c.245.187.545.281.901.281.369 0 .678-.098.926-.293a1.82 1.82 0 0 0 .562-.806c.129-.339.194-.72.194-1.145 0-.419-.063-.795-.19-1.128a1.727 1.727 0 0 0-.562-.789c-.248-.193-.558-.289-.93-.289-.358 0-.661.092-.909.277-.245.184-.431.442-.558.773s-.19.716-.19 1.157zm8.71 3.302c-.625 0-1.164-.134-1.616-.401a2.72 2.72 0 0 1-1.041-1.136c-.242-.49-.364-1.065-.364-1.723 0-.65.121-1.223.364-1.719a2.82 2.82 0 0 1 1.025-1.161c.441-.278.956-.417 1.545-.417.358 0 .705.059 1.041.178s.638.304.905.558c.267.253.478.583.632.988.154.402.231.891.231 1.467v.438h-5.045v-.926h3.835c0-.325-.066-.613-.198-.864a1.499 1.499 0 0 0-.558-.599 1.559 1.559 0 0 0-.835-.219c-.347 0-.65.085-.909.256a1.714 1.714 0 0 0-.595.661c-.138.27-.207.563-.207.88v.723c0 .424.074.785.223 1.083.151.298.362.525.632.682.27.154.585.231.946.231.234 0 .448-.033.641-.099a1.32 1.32 0 0 0 .822-.806l1.169.211a2.128 2.128 0 0 1-.504.905c-.24.256-.541.456-.905.599a3.4 3.4 0 0 1-1.236.211zm6.47-.004c-.512 0-.97-.131-1.372-.393-.399-.265-.713-.64-.942-1.128-.226-.49-.339-1.078-.339-1.764s.114-1.273.343-1.76c.231-.488.548-.861.95-1.12s.858-.388 1.368-.388c.394 0 .711.066.95.198.242.129.43.281.562.455.135.174.24.326.314.459h.074v-3.145h1.236v8.463h-1.207v-.988h-.103a3.3 3.3 0 0 1-.322.463c-.138.174-.328.325-.57.455s-.556.194-.942.194zm.273-1.054c.355 0 .656-.094.901-.281.248-.19.435-.453.562-.789.13-.336.194-.727.194-1.174 0-.441-.063-.826-.19-1.157s-.313-.588-.558-.773c-.245-.185-.548-.277-.909-.277-.372 0-.682.096-.93.289s-.435.456-.562.789a3.215 3.215 0 0 0-.186 1.128c0 .424.063.806.19 1.145s.314.608.562.806c.251.196.559.293.926.293zm9.391-3.868-1.12.198a1.325 1.325 0 0 0-.223-.409c-.099-.129-.234-.236-.405-.318s-.384-.124-.641-.124c-.35 0-.642.078-.876.236-.234.154-.351.354-.351.599 0 .212.079.383.236.512s.41.235.76.318l1.008.231c.584.135 1.019.343 1.306.624s.43.646.43 1.095c0 .38-.11.719-.331 1.017-.218.295-.522.526-.913.694-.388.168-.839.252-1.351.252-.711 0-1.291-.151-1.74-.455-.449-.306-.725-.74-.826-1.302l1.194-.182c.074.311.227.547.459.707.231.157.533.235.905.235.405 0 .729-.084.971-.252.242-.171.364-.379.364-.624a.648.648 0 0 0-.223-.5c-.146-.135-.37-.237-.674-.306l-1.074-.235c-.592-.135-1.03-.35-1.314-.645-.281-.295-.421-.668-.421-1.12 0-.375.105-.702.314-.983s.499-.5.868-.657c.369-.16.792-.24 1.269-.24.686 0 1.226.149 1.62.446.394.295.654.69.781 1.186z" style="fill:var(--color2, #101828)"/>
    </symbol>
    <symbol id="icon-CD" viewBox="0 0 64 32">
      <path fill="#f2f4f7" d="M16 0h32c8.837 0 16 7.163 16 16s-7.163 16-16 16H16C7.163 32 0 24.837 0 16S7.163 0 16 0z" style="fill:var(--color1, #f2f4f7)"/>
      <path fill="none" stroke="#101828" stroke-width="1.091" d="M20.364 21.455a5.455 5.455 0 1 0 0-10.91 5.455 5.455 0 0 0 0 10.91z" style="stroke:var(--color2, #101828)"/>
      <path fill="none" stroke="#101828" stroke-linecap="round" stroke-width="1.091" d="M17.03 16a3.333 3.333 0 0 1 3.333-3.333" style="stroke:var(--color2, #101828)"/>
      <path fill="none" stroke="#101828" stroke-width="1.091" d="M20.364 17.515a1.515 1.515 0 1 0 0-3.03 1.515 1.515 0 0 0 0 3.03z" style="stroke:var(--color2, #101828)"/>
      <path fill="#101828" d="M41.663 14.653h-1.289a1.978 1.978 0 0 0-.773-1.26 2.16 2.16 0 0 0-.657-.331 2.576 2.576 0 0 0-.764-.112c-.488 0-.924.123-1.31.368-.383.245-.686.605-.909 1.079-.22.474-.331 1.052-.331 1.736 0 .689.11 1.27.331 1.744.223.474.528.832.913 1.074s.82.364 1.302.364c.267 0 .521-.036.76-.107.242-.074.461-.183.657-.326a1.986 1.986 0 0 0 .781-1.244l1.289.004a3.443 3.443 0 0 1-.401 1.149 3.195 3.195 0 0 1-.756.901c-.306.251-.656.445-1.05.583s-.824.207-1.289.207c-.733 0-1.386-.174-1.959-.521-.573-.35-1.025-.85-1.355-1.5-.328-.65-.492-1.426-.492-2.326 0-.904.165-1.679.496-2.326.331-.65.782-1.149 1.355-1.496.573-.35 1.224-.525 1.955-.525.449 0 .868.065 1.256.194a3.33 3.33 0 0 1 1.054.562c.311.245.569.545.773.901.204.353.342.756.413 1.211zm4.268 5.711h-2.74v-8.463h2.826c.829 0 1.541.169 2.136.508.595.336 1.051.82 1.368 1.45.32.628.479 1.382.479 2.26 0 .882-.161 1.639-.483 2.273a3.39 3.39 0 0 1-1.388 1.463c-.606.339-1.339.508-2.198.508zm-1.463-1.116h1.392c.645 0 1.18-.121 1.608-.364a2.29 2.29 0 0 0 .959-1.062c.212-.466.318-1.033.318-1.702 0-.664-.106-1.227-.318-1.69-.209-.463-.522-.814-.938-1.054s-.932-.36-1.55-.36h-1.471v6.231z" style="fill:var(--color2, #101828)"/>
    </symbol>
    <symbol id="icon-Freezer" viewBox="0 0 89 32">
      <path fill="#f2f4f7" d="M16 0h56.727c8.837 0 16 7.163 16 16s-7.163 16-16 16H16C7.163 32 0 24.837 0 16S7.163 0 16 0z" style="fill:var(--color1, #f2f4f7)"/>
      <path fill="none" stroke="#101828" stroke-linecap="round" stroke-linejoin="round" stroke-width=".946" d="M23.727 10.091h-6.724a.909.909 0 0 0-.909.909v9.267c0 .502.407.909.909.909h6.724a.909.909 0 0 0 .909-.909V11a.909.909 0 0 0-.909-.909z" style="stroke:var(--color2, #101828)"/>
      <path fill="none" stroke="#101828" stroke-linecap="round" stroke-linejoin="round" stroke-width=".946" d="M16.094 14.694h8.539m-6.854-1.164v-1.836m0 5.87v-1.836m-.858 5.448v.318a.412.412 0 0 0 .412.415h.748a.416.416 0 0 0 .416-.416v-.318m3.73.001v.318a.416.416 0 0 0 .416.416h.752a.416.416 0 0 0 .416-.416v-.318" style="stroke:var(--color2, #101828)"/>
      <path fill="#101828" d="M34.39 20.364v-8.463h5.248V13h-3.971v2.579h3.595v1.095h-3.595v3.69H34.39zm6.639 0v-6.347h1.194v1.008h.066c.116-.342.32-.61.612-.806a1.753 1.753 0 0 1 1-.298 5.917 5.917 0 0 1 .525.029v1.182a2.118 2.118 0 0 0-.264-.045 2.559 2.559 0 0 0-.38-.029c-.292 0-.552.062-.781.186a1.381 1.381 0 0 0-.735 1.244v3.876H41.03zm6.975.128c-.625 0-1.164-.134-1.616-.401a2.72 2.72 0 0 1-1.041-1.136c-.242-.49-.364-1.065-.364-1.723 0-.65.121-1.223.364-1.719a2.82 2.82 0 0 1 1.025-1.161c.441-.278.956-.417 1.545-.417.358 0 .705.059 1.041.178s.638.304.905.558c.267.253.478.583.632.988.154.402.231.891.231 1.467v.438h-5.045v-.926h3.835c0-.325-.066-.613-.198-.864a1.499 1.499 0 0 0-.558-.599 1.559 1.559 0 0 0-.835-.219c-.347 0-.65.085-.909.256a1.714 1.714 0 0 0-.595.661c-.138.27-.207.563-.207.88v.723c0 .424.074.785.223 1.083.151.298.362.525.632.682.27.154.585.231.946.231.234 0 .448-.033.641-.099a1.32 1.32 0 0 0 .822-.806l1.169.211a2.128 2.128 0 0 1-.504.905c-.24.256-.541.456-.905.599a3.4 3.4 0 0 1-1.236.211zm6.829 0c-.625 0-1.164-.134-1.616-.401a2.72 2.72 0 0 1-1.041-1.136c-.242-.49-.364-1.065-.364-1.723 0-.65.121-1.223.364-1.719a2.82 2.82 0 0 1 1.025-1.161c.441-.278.956-.417 1.545-.417.358 0 .705.059 1.041.178s.638.304.905.558c.267.253.478.583.632.988.154.402.231.891.231 1.467v.438H52.51v-.926h3.835c0-.325-.066-.613-.198-.864a1.499 1.499 0 0 0-.558-.599 1.559 1.559 0 0 0-.835-.219c-.347 0-.65.085-.909.256a1.714 1.714 0 0 0-.595.661c-.138.27-.207.563-.207.88v.723c0 .424.074.785.223 1.083.151.298.362.525.632.682.27.154.585.231.946.231.234 0 .448-.033.641-.099a1.32 1.32 0 0 0 .822-.806l1.169.211a2.128 2.128 0 0 1-.504.905c-.24.256-.541.456-.905.599a3.4 3.4 0 0 1-1.236.211zm3.962-.128v-.847l3.438-4.368v-.058h-3.326v-1.074h4.868v.901l-3.306 4.314v.058h3.421v1.074h-5.095zm9.106.128c-.625 0-1.164-.134-1.616-.401a2.72 2.72 0 0 1-1.041-1.136c-.242-.49-.364-1.065-.364-1.723 0-.65.121-1.223.364-1.719a2.82 2.82 0 0 1 1.025-1.161c.441-.278.956-.417 1.545-.417.358 0 .705.059 1.041.178s.638.304.905.558c.267.253.478.583.632.988.154.402.231.891.231 1.467v.438h-5.045v-.926h3.835c0-.325-.066-.613-.198-.864a1.499 1.499 0 0 0-.558-.599 1.559 1.559 0 0 0-.835-.219c-.347 0-.65.085-.909.256a1.714 1.714 0 0 0-.595.661c-.138.27-.207.563-.207.88v.723c0 .424.074.785.223 1.083.152.298.362.525.632.682.27.154.585.231.946.231.234 0 .448-.033.641-.099a1.32 1.32 0 0 0 .822-.806l1.169.211a2.128 2.128 0 0 1-.504.905c-.24.256-.541.456-.905.599a3.4 3.4 0 0 1-1.236.211zm4.094-.128v-6.347h1.194v1.008h.066c.116-.342.319-.61.611-.806a1.753 1.753 0 0 1 1-.298 5.84 5.84 0 0 1 .525.029v1.182a2.04 2.04 0 0 0-.265-.045 2.559 2.559 0 0 0-.38-.029 1.61 1.61 0 0 0-.781.186 1.381 1.381 0 0 0-.736 1.244v3.876h-1.235z" style="fill:var(--color2, #101828)"/>
    </symbol>
    <symbol id="icon-Gas" viewBox="0 0 68 32">
      <path fill="#f2f4f7" d="M16 0h36.364c8.837 0 16 7.163 16 16s-7.163 16-16 16H16C7.163 32 0 24.837 0 16S7.163 0 16 0z" style="fill:var(--color1, #f2f4f7)"/>
      <path fill="#101828" d="M24.487 15.087c-.167-.206-.371-.385-.56-.563-.487-.412-1.04-.707-1.505-1.14-1.084-1.003-1.323-2.658-.633-3.929-.691.158-1.294.515-1.811.907-1.883 1.429-2.625 3.95-1.738 6.113.029.069.058.137.058.227a.382.382 0 0 1-.254.343.472.472 0 0 1-.48-.082.394.394 0 0 1-.102-.117c-.822-.982-.953-2.39-.4-3.517-1.214.934-1.876 2.514-1.781 4.005.044.343.087.687.211 1.03.102.412.298.824.516 1.188.785 1.188 2.145 2.04 3.607 2.212 1.556.185 3.221-.082 4.414-1.099 1.331-1.14 1.796-2.967 1.113-4.533l-.095-.179c-.153-.316-.56-.865-.56-.865zm-2.298 4.327a2.433 2.433 0 0 1-.8.412c-.814.275-1.629-.11-2.109-.563.865-.192 1.382-.797 1.534-1.408.124-.55-.109-1.003-.204-1.532-.087-.508-.073-.941.124-1.415.138.261.284.522.458.728.56.687 1.44.989 1.629 1.923.029.096.044.192.044.295a2.042 2.042 0 0 1-.676 1.559zm18.042-4.84a2.594 2.594 0 0 0-.322-.674 2.057 2.057 0 0 0-1.107-.838 2.555 2.555 0 0 0-.773-.112c-.477 0-.906.123-1.289.368s-.686.605-.909 1.079c-.22.471-.331 1.048-.331 1.731 0 .686.112 1.266.335 1.74s.529.833.917 1.078c.388.245.831.368 1.326.368.46 0 .861-.094 1.203-.281.344-.187.61-.452.797-.793.19-.344.285-.749.285-1.215l.331.062h-2.421v-1.054h3.326v.963c0 .711-.152 1.328-.455 1.851-.3.521-.716.923-1.248 1.207-.529.284-1.135.426-1.818.426-.766 0-1.438-.176-2.017-.529a3.586 3.586 0 0 1-1.347-1.5c-.322-.65-.483-1.421-.483-2.314 0-.675.094-1.281.281-1.818s.45-.993.789-1.368a3.463 3.463 0 0 1 1.202-.864 3.766 3.766 0 0 1 1.517-.302c.457 0 .883.068 1.277.203.397.135.749.326 1.058.574.311.248.569.543.773.884.204.339.342.715.413 1.128h-1.31zm4.737 5.93c-.402 0-.766-.074-1.091-.223a1.845 1.845 0 0 1-.773-.657c-.187-.287-.281-.638-.281-1.054 0-.358.069-.653.207-.884s.324-.415.558-.55c.234-.135.496-.237.785-.306s.584-.121.884-.157l.926-.107c.237-.03.409-.078.517-.145s.161-.174.161-.322v-.029c0-.361-.102-.64-.306-.839-.201-.198-.501-.298-.901-.298-.416 0-.744.092-.983.277a1.483 1.483 0 0 0-.492.607l-1.161-.264c.138-.386.339-.697.603-.934.267-.24.574-.413.921-.521.347-.11.712-.165 1.095-.165.253 0 .522.03.806.091.286.058.554.165.802.322.251.157.456.382.616.674.16.289.24.665.24 1.128v4.215h-1.207v-.868h-.05c-.08.16-.2.317-.359.471s-.365.282-.616.384a2.389 2.389 0 0 1-.901.153zm.268-.992c.342 0 .634-.067.876-.202.245-.135.431-.311.558-.529.129-.22.194-.456.194-.707v-.818a.647.647 0 0 1-.256.124 4.049 4.049 0 0 1-.426.095c-.16.025-.315.048-.467.07l-.38.05c-.24.03-.459.081-.657.153a1.126 1.126 0 0 0-.471.31c-.116.132-.174.309-.174.529 0 .306.113.537.339.694.226.154.514.231.864.231zm9.266-3.946-1.12.198a1.325 1.325 0 0 0-.223-.409c-.099-.129-.234-.236-.405-.318s-.384-.124-.641-.124c-.35 0-.642.078-.876.236-.234.154-.351.354-.351.599 0 .212.079.383.236.512s.41.235.76.318l1.008.231c.584.135 1.019.343 1.306.624s.43.646.43 1.095c0 .38-.11.719-.331 1.017-.218.295-.522.526-.913.694-.388.168-.839.252-1.351.252-.711 0-1.291-.151-1.74-.455-.449-.306-.725-.74-.826-1.302l1.194-.182c.074.311.227.547.459.707.231.157.533.235.905.235.405 0 .729-.084.971-.252.242-.171.364-.379.364-.624a.648.648 0 0 0-.223-.5c-.146-.135-.37-.237-.674-.306l-1.074-.235c-.592-.135-1.03-.35-1.314-.645-.281-.295-.421-.668-.421-1.12 0-.375.105-.702.314-.983s.499-.5.868-.657c.369-.16.792-.24 1.269-.24.686 0 1.226.149 1.62.446.394.295.654.69.781 1.186z" style="fill:var(--color2, #101828)"/>
    </symbol>
    <symbol id="icon-hob" viewBox="0 0 79 32">
      <path fill="#f2f4f7" d="M16 0h46.545c8.837 0 16 7.163 16 16s-7.163 16-16 16H16C7.163 32 0 24.837 0 16S7.163 0 16 0z" style="fill:var(--color1, #f2f4f7)"/>
      <path fill="none" stroke="#101828" stroke-width="1.091" d="M18.545 11.758h7.273a.61.61 0 0 1 .606.606v7.879a.61.61 0 0 1-.606.606h-7.273m0-9.091h-3.636a.606.606 0 0 0-.607.606v7.879a.61.61 0 0 0 .607.606h3.636m0-9.091v9.091" style="stroke:var(--color2, #101828)"/>
      <path fill="none" stroke="#101828" stroke-linecap="round" stroke-linejoin="round" stroke-width="1.091" d="M16.424 13.879v1.212m7.879-1.515-3.636 5.152" style="stroke:var(--color2, #101828)"/>
      <path fill="#101828" d="M17.03 16.909a.606.606 0 1 0-1.211 0 .606.606 0 0 0 1.211 0zm0 1.818a.606.606 0 1 0-1.211 0 .606.606 0 0 0 1.211 0zm17.483 1.637v-.926l2.864-2.967c.306-.322.558-.605.756-.847.201-.245.351-.478.45-.698s.149-.455.149-.702c0-.281-.066-.523-.198-.727a1.294 1.294 0 0 0-.541-.475 1.721 1.721 0 0 0-.773-.169c-.303 0-.568.062-.793.186s-.399.299-.521.525c-.121.226-.182.49-.182.793h-1.219c0-.515.118-.966.355-1.351s.562-.685.975-.897a3.007 3.007 0 0 1 1.409-.322c.532 0 1 .106 1.405.318.408.209.726.496.955.86.229.361.343.769.343 1.223 0 .314-.059.621-.178.921-.116.3-.318.635-.607 1.004-.289.366-.691.811-1.207 1.335l-1.682 1.76v.062h3.81v1.095h-5.57zm11.468-3.769v3.769h-1.236v-8.463h1.219v3.149h.078c.149-.342.376-.613.682-.814s.705-.302 1.198-.302c.435 0 .815.09 1.141.269.328.179.581.446.76.802.182.353.273.793.273 1.322v4.037H48.86v-3.888c0-.466-.12-.826-.359-1.083-.24-.259-.573-.388-1-.388-.292 0-.554.062-.785.186a1.34 1.34 0 0 0-.541.545c-.13.237-.194.523-.194.86zm8.438 3.897c-.595 0-1.114-.136-1.558-.409s-.788-.654-1.033-1.145c-.245-.49-.368-1.063-.368-1.719 0-.658.123-1.234.368-1.727s.59-.876 1.033-1.149c.444-.273.963-.409 1.558-.409s1.114.136 1.558.409c.444.273.788.656 1.033 1.149s.368 1.069.368 1.727c0 .656-.123 1.229-.368 1.719s-.59.872-1.033 1.145c-.444.273-.963.409-1.558.409zm.004-1.037c.386 0 .705-.102.959-.306s.441-.475.562-.814c.124-.339.186-.712.186-1.12 0-.405-.062-.777-.186-1.116-.121-.342-.309-.616-.562-.822s-.573-.31-.959-.31c-.388 0-.711.103-.967.31a1.855 1.855 0 0 0-.566.822 3.299 3.299 0 0 0-.182 1.116c0 .408.061.781.182 1.12.124.339.313.61.566.814.256.204.579.306.967.306zm4.433.909v-8.463h1.236v3.145h.074c.072-.132.175-.285.31-.459s.322-.325.562-.455c.24-.132.556-.198.95-.198.512 0 .97.129 1.372.388s.718.632.946 1.12c.231.488.347 1.074.347 1.76s-.114 1.274-.343 1.764c-.229.488-.543.864-.942 1.128-.4.262-.855.393-1.368.393-.386 0-.701-.065-.946-.194-.242-.129-.432-.281-.57-.455s-.244-.328-.318-.463h-.103v.988h-1.207zm1.211-3.174c0 .446.065.837.194 1.174s.317.599.562.789c.245.187.545.281.901.281.369 0 .678-.098.926-.293a1.82 1.82 0 0 0 .562-.806c.129-.339.194-.72.194-1.145 0-.419-.063-.795-.19-1.128a1.727 1.727 0 0 0-.562-.789c-.248-.193-.558-.289-.93-.289-.358 0-.661.092-.909.277-.245.184-.431.442-.558.773s-.19.716-.19 1.157z" style="fill:var(--color2, #101828)"/>
    </symbol>
    <symbol id="icon-kitchen" viewBox="0 0 88 32">
      <path fill="#f2f4f7" d="M16 0h56c8.837 0 16 7.163 16 16s-7.163 16-16 16H16C7.163 32 0 24.837 0 16S7.163 0 16 0z" style="fill:var(--color1, #f2f4f7)"/>
      <path fill="none" stroke="#101828" stroke-linecap="round" stroke-linejoin="round" stroke-width="1.091" d="M24.606 17.818v-7.273c-2.919 2.784-3.044 5.042-3.03 7.273h3.03zm0 0v3.636H24v-1.818m-6.061-8.484v10.303m-1.818-10.303v1.818a1.82 1.82 0 0 0 3.105 1.286c.341-.341.532-.803.532-1.286v-1.818" style="stroke:var(--color2, #101828)"/>
      <path fill="#101828" d="m35.637 18.211-.008-1.508h.215l2.529-2.686h1.479l-2.884 3.058h-.194l-1.136 1.136zm-1.136 2.153v-8.463h1.236v8.463h-1.236zm4.008 0-2.273-3.017.851-.864 2.938 3.88h-1.517zm2.469 0v-6.347h1.236v6.347h-1.236zm.624-7.327a.788.788 0 0 1-.554-.215.697.697 0 0 1-.227-.521c0-.204.076-.377.227-.521.154-.146.339-.219.554-.219s.398.073.55.219a.685.685 0 0 1 .231.521.694.694 0 0 1-.231.521.772.772 0 0 1-.55.215zm5.237.98v.992h-3.467v-.992h3.467zm-2.537-1.521h1.236V18.5c0 .24.036.42.108.541.072.118.164.2.277.244.116.041.241.062.376.062.099 0 .186-.007.26-.021l.174-.033.223 1.021a2.45 2.45 0 0 1-.802.133c-.325.006-.628-.052-.909-.174s-.508-.308-.682-.562c-.174-.253-.26-.572-.26-.955v-6.26zm6.509 7.996c-.614 0-1.143-.139-1.587-.417-.441-.281-.78-.668-1.017-1.161s-.355-1.058-.355-1.694c0-.645.121-1.213.364-1.707.242-.496.584-.883 1.025-1.161s.96-.417 1.558-.417c.482 0 .912.09 1.289.269.377.176.682.424.913.744.234.32.373.693.417 1.12h-1.202a1.44 1.44 0 0 0-.455-.769c-.234-.215-.548-.322-.942-.322-.344 0-.646.091-.905.273a1.75 1.75 0 0 0-.599.769c-.143.331-.215.722-.215 1.174 0 .463.07.862.211 1.198s.339.596.595.781c.259.184.563.277.913.277.234 0 .446-.043.636-.128.193-.088.354-.214.483-.376.132-.163.224-.358.277-.587h1.202c-.044.41-.178.777-.401 1.099s-.522.576-.897.76c-.372.184-.809.277-1.31.277zm5.164-3.897v3.769h-1.236v-8.463h1.219v3.149h.078c.149-.342.376-.613.682-.814s.705-.302 1.198-.302c.435 0 .815.09 1.14.269.328.179.581.446.76.802.182.353.273.793.273 1.322v4.037h-1.236v-3.888c0-.466-.12-.826-.359-1.083-.24-.259-.573-.388-1-.388-.292 0-.554.062-.785.186a1.34 1.34 0 0 0-.541.545c-.13.237-.194.523-.194.86zm8.5 3.897c-.625 0-1.164-.134-1.616-.401a2.72 2.72 0 0 1-1.041-1.136c-.242-.49-.364-1.065-.364-1.723 0-.65.121-1.223.364-1.719a2.82 2.82 0 0 1 1.025-1.161c.441-.278.956-.417 1.545-.417.358 0 .705.059 1.041.178s.638.304.905.558c.267.253.478.583.632.988.154.402.231.891.231 1.467v.438h-5.045v-.926h3.835c0-.325-.066-.613-.198-.864a1.499 1.499 0 0 0-.558-.599 1.559 1.559 0 0 0-.835-.219c-.347 0-.65.085-.909.256a1.714 1.714 0 0 0-.595.661c-.138.27-.207.563-.207.88v.723c0 .424.074.785.223 1.083.151.298.362.525.632.682.27.154.585.231.946.231.234 0 .448-.033.64-.099a1.332 1.332 0 0 0 .822-.806l1.169.211a2.128 2.128 0 0 1-.504.905c-.24.256-.541.456-.905.599a3.4 3.4 0 0 1-1.236.211zm5.33-3.897v3.769h-1.236v-6.347h1.186v1.033h.078c.146-.336.375-.606.686-.81.314-.204.709-.306 1.186-.306.433 0 .811.091 1.137.273.325.179.577.446.756.802s.269.795.269 1.318v4.037h-1.236v-3.888c0-.46-.12-.82-.359-1.078-.24-.262-.569-.393-.988-.393-.286 0-.541.062-.764.186-.22.124-.395.306-.525.545-.127.237-.19.523-.19.86z" style="fill:var(--color2, #101828)"/>
    </symbol>
    <symbol id="icon-Microwave" viewBox="0 0 107 32">
      <path fill="#f2f4f7" d="M16 0h74.909c8.837 0 16 7.163 16 16s-7.163 16-16 16H16C7.163 32 0 24.837 0 16S7.163 0 16 0z" style="fill:var(--color1, #f2f4f7)"/>
      <path fill="none" stroke="#101828" stroke-linecap="round" stroke-linejoin="round" stroke-width="1.018" d="M26.597 11.325H14.129a.52.52 0 0 0-.519.519v8.312a.52.52 0 0 0 .519.519h12.468a.52.52 0 0 0 .519-.519v-8.312a.52.52 0 0 0-.519-.519z" style="stroke:var(--color2, #101828)"/>
      <path fill="none" stroke="#101828" stroke-linecap="round" stroke-linejoin="round" stroke-width="1.018" d="M24.52 13.922h.52M24.52 16h.52m-3.118-2.597h-5.714a.52.52 0 0 0-.519.519v4.156a.52.52 0 0 0 .519.519h5.714a.52.52 0 0 0 .519-.519v-4.156a.52.52 0 0 0-.519-.519z" style="stroke:var(--color2, #101828)"/>
      <path fill="#101828" d="M34.464 11.901h1.55l2.694 6.579h.099l2.694-6.579h1.55v8.463h-1.215V14.24h-.078l-2.496 6.112h-1.008l-2.496-6.116h-.079v6.128h-1.215v-8.463zm10.344 8.463v-6.347h1.236v6.347h-1.236zm.624-7.327a.787.787 0 0 1-.554-.215.701.701 0 0 1-.227-.521c0-.204.076-.377.227-.521.154-.146.339-.219.554-.219s.398.073.55.219a.685.685 0 0 1 .231.521.694.694 0 0 1-.231.521.772.772 0 0 1-.55.215zm4.947 7.455c-.614 0-1.143-.139-1.587-.417-.441-.281-.78-.668-1.017-1.161s-.355-1.058-.355-1.694c0-.645.121-1.213.364-1.707.242-.496.584-.883 1.025-1.161s.96-.417 1.558-.417c.482 0 .912.09 1.289.269.377.176.682.424.913.744.234.32.373.693.417 1.12h-1.202a1.44 1.44 0 0 0-.455-.769c-.234-.215-.548-.322-.942-.322-.344 0-.646.091-.905.273a1.75 1.75 0 0 0-.599.769c-.143.331-.215.722-.215 1.174 0 .463.07.862.211 1.198s.339.596.595.781c.259.184.563.277.913.277.234 0 .446-.043.636-.128.193-.088.354-.214.483-.376.132-.163.225-.358.277-.587h1.202c-.044.41-.178.777-.401 1.099s-.522.576-.897.76c-.372.184-.809.277-1.31.277zm3.929-.128v-6.347h1.194v1.008h.066c.116-.342.32-.61.612-.806a1.753 1.753 0 0 1 1-.298 5.917 5.917 0 0 1 .525.029v1.182a2.118 2.118 0 0 0-.264-.045 2.559 2.559 0 0 0-.38-.029c-.292 0-.552.062-.781.186a1.381 1.381 0 0 0-.735 1.244v3.876h-1.236zm6.912.128c-.595 0-1.114-.136-1.558-.409s-.788-.654-1.033-1.145c-.245-.49-.368-1.063-.368-1.719 0-.658.123-1.234.368-1.727s.59-.876 1.033-1.149c.444-.273.963-.409 1.558-.409s1.114.136 1.558.409c.444.273.788.656 1.033 1.149s.368 1.069.368 1.727c0 .656-.123 1.229-.368 1.719s-.59.872-1.033 1.145c-.444.273-.963.409-1.558.409zm.004-1.037c.386 0 .705-.102.959-.306s.441-.475.562-.814c.124-.339.186-.712.186-1.12 0-.405-.062-.777-.186-1.116-.121-.342-.309-.616-.562-.822s-.573-.31-.959-.31c-.388 0-.711.103-.967.31a1.855 1.855 0 0 0-.566.822 3.299 3.299 0 0 0-.182 1.116c0 .408.061.781.182 1.12.124.339.313.61.566.814.256.204.578.306.967.306zm5.517.909-1.868-6.347h1.277l1.244 4.661h.062l1.248-4.661h1.277l1.24 4.64h.062l1.236-4.64h1.277l-1.863 6.347h-1.26l-1.289-4.583h-.095L68 20.364h-1.256zm10.073.14c-.402 0-.766-.074-1.091-.223a1.836 1.836 0 0 1-.772-.657c-.188-.287-.281-.638-.281-1.054 0-.358.069-.653.207-.884s.324-.415.558-.55.495-.237.785-.306c.289-.069.584-.121.884-.157l.926-.107c.237-.03.409-.078.516-.145s.161-.174.161-.322v-.029c0-.361-.103-.64-.306-.839-.201-.198-.501-.298-.901-.298-.415 0-.743.092-.983.277a1.483 1.483 0 0 0-.492.607l-1.161-.264a2.22 2.22 0 0 1 .603-.934c.267-.24.575-.413.921-.521.347-.11.712-.165 1.095-.165.253 0 .522.03.806.091.287.058.553.165.801.322.251.157.456.382.616.674.159.289.239.665.239 1.128v4.215h-1.207v-.868h-.049c-.08.16-.2.317-.359.471s-.365.282-.616.384a2.389 2.389 0 0 1-.901.153zm.269-.992c.341 0 .633-.067.876-.202.245-.135.431-.311.558-.529.129-.22.194-.456.194-.707v-.818a.647.647 0 0 1-.256.124 4.084 4.084 0 0 1-.425.095c-.16.025-.316.048-.467.07l-.38.05c-.24.03-.459.081-.657.153a1.126 1.126 0 0 0-.471.31c-.116.132-.174.309-.174.529 0 .306.113.537.339.694.226.154.514.231.864.231zm9.711-5.495-2.301 6.347H83.17l-2.305-6.347h1.327l1.607 4.884h.066l1.603-4.884h1.327zm3.681 6.475c-.625 0-1.164-.134-1.615-.401a2.72 2.72 0 0 1-1.041-1.136c-.242-.49-.364-1.065-.364-1.723 0-.65.121-1.223.364-1.719a2.82 2.82 0 0 1 1.025-1.161c.441-.278.956-.417 1.545-.417.359 0 .705.059 1.041.178s.638.304.905.558c.268.253.478.583.633.988.154.402.231.891.231 1.467v.438h-5.046v-.926h3.835c0-.325-.066-.613-.199-.864a1.499 1.499 0 0 0-.558-.599 1.559 1.559 0 0 0-.835-.219c-.347 0-.649.085-.909.256a1.714 1.714 0 0 0-.595.661c-.137.27-.207.563-.207.88v.723c0 .424.074.785.223 1.083.151.298.362.525.632.682.271.154.585.231.946.231.234 0 .448-.033.641-.099a1.32 1.32 0 0 0 .822-.806l1.169.211a2.128 2.128 0 0 1-.504.905 2.45 2.45 0 0 1-.905.599c-.361.14-.772.211-1.236.211z" style="fill:var(--color2, #101828)"/>
    </symbol>
    <symbol id="icon-Petrol" viewBox="0 0 79 32">
      <path fill="#f2f4f7" d="M16 0h47.273c8.837 0 16 7.163 16 16s-7.163 16-16 16H16C7.163 32 0 24.837 0 16S7.163 0 16 0z" style="fill:var(--color1, #f2f4f7)"/>
      <path fill="#101828" d="m25.073 13.109.006-.006-2.255-2.255-.642.642 1.279 1.279a1.51 1.51 0 0 0-.533 2.484 1.516 1.516 0 0 0 1.677.317v4.37a.61.61 0 0 1-.607.606.61.61 0 0 1-.606-.606v-2.727a1.212 1.212 0 0 0-1.212-1.212h-.606v-4.242a1.212 1.212 0 0 0-1.212-1.212h-3.636a1.213 1.213 0 0 0-1.212 1.212v9.697h6.061v-4.545h.909v3.03a1.515 1.515 0 0 0 3.03 0v-5.758c0-.418-.17-.8-.442-1.073zm-4.709 3.8v3.333h-3.636V16h3.636v.909zm0-2.121h-3.636v-3.03h3.636v3.03zm3.636 0a.605.605 0 1 1 0-1.21.605.605 0 0 1 0 1.21zm10.413 5.576v-8.463h3.017c.658 0 1.204.12 1.636.36s.756.568.971.983c.215.413.322.879.322 1.397 0 .521-.109.989-.326 1.405-.215.413-.54.741-.975.983-.432.24-.977.36-1.632.36h-2.074v-1.083h1.959c.416 0 .753-.072 1.012-.215.259-.146.449-.344.57-.595s.182-.536.182-.855-.061-.603-.182-.851a1.308 1.308 0 0 0-.574-.583c-.259-.14-.601-.211-1.025-.211h-1.603v7.368h-1.277zm10 .128c-.625 0-1.164-.134-1.616-.401a2.72 2.72 0 0 1-1.041-1.136c-.242-.49-.364-1.065-.364-1.723 0-.65.121-1.223.364-1.719a2.82 2.82 0 0 1 1.025-1.161c.441-.278.956-.417 1.545-.417.358 0 .705.059 1.041.178s.638.304.905.558c.267.253.478.583.632.988.154.402.231.891.231 1.467v.438H42.09v-.926h3.835c0-.325-.066-.613-.198-.864a1.499 1.499 0 0 0-.558-.599 1.559 1.559 0 0 0-.835-.219c-.347 0-.65.085-.909.256a1.714 1.714 0 0 0-.595.661c-.138.27-.207.563-.207.88v.723c0 .424.074.785.223 1.083.151.298.362.525.632.682.27.154.585.231.946.231.234 0 .448-.033.641-.099a1.32 1.32 0 0 0 .822-.806l1.169.211a2.128 2.128 0 0 1-.504.905c-.24.256-.541.456-.905.599a3.4 3.4 0 0 1-1.236.211zm7.057-6.475v.992h-3.467v-.992h3.467zm-2.538-1.521h1.236V18.5c0 .24.036.42.108.541.072.118.164.2.277.244.116.041.241.062.376.062.099 0 .186-.007.26-.021l.174-.033.223 1.021a2.458 2.458 0 0 1-.802.133c-.325.006-.628-.052-.909-.174s-.508-.308-.682-.562c-.174-.253-.26-.572-.26-.955v-6.26zm3.904 7.868v-6.347h1.194v1.008h.066c.116-.342.32-.61.612-.806a1.753 1.753 0 0 1 1-.298 5.917 5.917 0 0 1 .525.029v1.182a2.118 2.118 0 0 0-.264-.045 2.559 2.559 0 0 0-.38-.029c-.292 0-.552.062-.781.186a1.381 1.381 0 0 0-.735 1.244v3.876h-1.236zm6.912.128c-.595 0-1.114-.136-1.558-.409s-.788-.654-1.033-1.145c-.245-.49-.368-1.063-.368-1.719 0-.658.123-1.234.368-1.727s.59-.876 1.033-1.149c.444-.273.963-.409 1.558-.409s1.114.136 1.558.409c.444.273.788.656 1.033 1.149s.368 1.069.368 1.727c0 .656-.123 1.229-.368 1.719s-.59.872-1.033 1.145c-.444.273-.963.409-1.558.409zm.005-1.037c.386 0 .705-.102.959-.306s.441-.475.562-.814c.124-.339.186-.712.186-1.12 0-.405-.062-.777-.186-1.116-.121-.342-.309-.616-.562-.822s-.573-.31-.959-.31c-.388 0-.711.103-.967.31a1.855 1.855 0 0 0-.566.822 3.299 3.299 0 0 0-.182 1.116c0 .408.061.781.182 1.12.124.339.313.61.566.814.256.204.578.306.967.306zm5.569-7.554v8.463h-1.236v-8.463h1.236z" style="fill:var(--color2, #101828)"/>
    </symbol>
    <symbol id="icon-Radio" viewBox="0 0 79 32">
      <path fill="#f2f4f7" d="M16 0h46.545c8.837 0 16 7.163 16 16s-7.163 16-16 16H16C7.163 32 0 24.837 0 16S7.163 0 16 0z" style="fill:var(--color1, #f2f4f7)"/>
      <path fill="none" stroke="#101828" stroke-width=".946" d="M14.303 17.212c0-2.285 0-3.428.71-4.138s1.853-.71 4.138-.71h2.424c2.285 0 3.428 0 4.138.71s.71 1.853.71 4.138 0 3.428-.71 4.138-1.853.71-4.138.71h-2.424c-2.285 0-3.428 0-4.138-.71s-.71-1.853-.71-4.138z" style="stroke:var(--color2, #101828)"/>
      <path fill="none" stroke="#101828" stroke-width=".946" d="M16.121 15.394a1.212 1.212 0 0 1 1.212-1.212h6.061a1.212 1.212 0 1 1 0 2.424h-6.061a1.213 1.213 0 0 1-1.212-1.212zm2.424 3.636a.912.912 0 0 1-.909.909.912.912 0 0 1-.909-.909.912.912 0 0 1 .909-.909.912.912 0 0 1 .909.909z" style="stroke:var(--color2, #101828)"/>
      <path fill="none" stroke="#101828" stroke-linecap="round" stroke-width=".946" d="M22.182 15.697v.909M20.97 19.03H24m-6.97-6.666 5.152-2.424" style="stroke:var(--color2, #101828)"/>
      <path fill="#101828" d="M34.725 20.364v-8.463h3.017c.656 0 1.2.113 1.632.339.435.226.76.539.975.938.215.397.322.855.322 1.376 0 .518-.109.974-.326 1.368-.215.391-.54.696-.975.913-.432.218-.977.326-1.632.326h-2.285v-1.099h2.169c.413 0 .749-.059 1.008-.178.262-.118.453-.291.574-.517s.182-.497.182-.814c0-.32-.062-.596-.186-.831a1.203 1.203 0 0 0-.574-.537c-.259-.127-.599-.19-1.021-.19h-1.603v7.368h-1.277zm4.178-3.819 2.091 3.818h-1.455l-2.05-3.818h1.413zm5.07 3.959c-.402 0-.766-.074-1.091-.223a1.845 1.845 0 0 1-.773-.657c-.187-.287-.281-.638-.281-1.054 0-.358.069-.653.207-.884s.324-.415.558-.55c.234-.135.496-.237.785-.306s.584-.121.884-.157l.926-.107c.237-.03.409-.078.517-.145s.161-.174.161-.322v-.029c0-.361-.102-.64-.306-.839-.201-.198-.501-.298-.901-.298-.416 0-.744.092-.983.277a1.483 1.483 0 0 0-.492.607l-1.161-.264c.138-.386.339-.697.603-.934.267-.24.574-.413.921-.521.347-.11.712-.165 1.095-.165.253 0 .522.03.806.091.286.058.554.165.802.322.251.157.456.382.616.674.16.289.24.665.24 1.128v4.215h-1.207v-.868h-.05c-.08.16-.2.317-.359.471s-.365.282-.616.384a2.389 2.389 0 0 1-.901.153zm.269-.992c.342 0 .634-.067.876-.202.245-.135.431-.311.558-.529.129-.22.194-.456.194-.707v-.818a.647.647 0 0 1-.256.124 4.049 4.049 0 0 1-.426.095c-.16.025-.315.048-.467.07l-.38.05c-.24.03-.459.081-.657.153a1.126 1.126 0 0 0-.471.31c-.116.132-.174.309-.174.529 0 .306.113.537.339.694.226.154.514.231.864.231zm6.885.976c-.512 0-.97-.131-1.372-.393-.4-.265-.714-.64-.942-1.128-.226-.49-.339-1.078-.339-1.764s.114-1.273.343-1.76c.231-.488.548-.861.95-1.12s.858-.388 1.368-.388c.394 0 .711.066.95.198.242.129.43.281.562.455.135.174.24.326.314.459h.074v-3.145h1.236v8.463h-1.207v-.988h-.103a3.3 3.3 0 0 1-.322.463c-.138.174-.328.325-.57.455s-.556.194-.942.194zm.273-1.054c.355 0 .656-.094.901-.281.248-.19.435-.453.562-.789.129-.336.194-.727.194-1.174 0-.441-.063-.826-.19-1.157s-.313-.588-.558-.773c-.245-.185-.548-.277-.909-.277-.372 0-.682.096-.93.289s-.435.456-.562.789a3.215 3.215 0 0 0-.186 1.128c0 .424.063.806.19 1.145s.314.608.562.806c.251.196.559.293.926.293zm4.635.93v-6.347h1.236v6.347h-1.236zm.624-7.327a.788.788 0 0 1-.554-.215.701.701 0 0 1-.227-.521c0-.204.076-.377.227-.521.154-.146.339-.219.554-.219s.398.073.55.219a.685.685 0 0 1 .231.521.694.694 0 0 1-.231.521.772.772 0 0 1-.55.215zm4.947 7.455c-.595 0-1.114-.136-1.558-.409s-.788-.654-1.033-1.145c-.245-.49-.368-1.063-.368-1.719 0-.658.123-1.234.368-1.727s.59-.876 1.033-1.149c.444-.273.963-.409 1.558-.409s1.114.136 1.558.409c.444.273.788.656 1.033 1.149s.368 1.069.368 1.727c0 .656-.123 1.229-.368 1.719s-.59.872-1.033 1.145c-.444.273-.963.409-1.558.409zm.005-1.037c.386 0 .705-.102.959-.306s.441-.475.562-.814c.124-.339.186-.712.186-1.12 0-.405-.062-.777-.186-1.116-.121-.342-.309-.616-.562-.822s-.573-.31-.959-.31c-.388 0-.711.103-.967.31a1.855 1.855 0 0 0-.566.822 3.299 3.299 0 0 0-.182 1.116c0 .408.061.781.182 1.12.124.339.313.61.566.814.256.204.579.306.967.306z" style="fill:var(--color2, #101828)"/>
    </symbol>
    <symbol id="icon-Shower" viewBox="0 0 89 32">
      <path fill="#f2f4f7" d="M16 0h56.727c8.837 0 16 7.163 16 16s-7.163 16-16 16H16C7.163 32 0 24.837 0 16S7.163 0 16 0z" style="fill:var(--color1, #f2f4f7)"/>
      <path fill="none" stroke="#101828" stroke-linecap="round" stroke-linejoin="round" stroke-width="1.164" d="m15.515 11.152 1.515 1.515m4.243 0a3 3 0 0 0-4.243 4.243m5.152-5.152-6.061 6.061m5.455 1.211v.006m-2.424-.612v.006m1.818-1.824v.006m1.818-1.824v.006m-3.03 6.054v.006m3.636-3.642v.006m1.818-1.824v.006" style="stroke:var(--color2, #101828)"/>
      <path fill="#101828" d="M39.085 14.124a1.208 1.208 0 0 0-.545-.909c-.32-.218-.722-.326-1.207-.326-.347 0-.647.055-.901.165a1.39 1.39 0 0 0-.591.446 1.051 1.051 0 0 0-.207.64c0 .201.047.375.141.521.096.146.222.269.376.368.157.096.325.178.504.244.179.063.351.116.517.157l.826.215c.27.066.547.156.831.269s.547.262.789.446c.242.185.438.413.587.686.151.273.227.599.227.979 0 .479-.124.905-.372 1.277-.245.372-.602.665-1.07.88-.466.215-1.029.322-1.69.322-.634 0-1.182-.101-1.645-.302s-.825-.486-1.087-.855c-.262-.372-.406-.813-.434-1.322h1.281c.025.306.124.561.298.764.176.201.401.351.674.45.275.096.577.145.905.145.361 0 .682-.056.963-.169.284-.116.507-.276.669-.479.163-.207.244-.448.244-.723a.89.89 0 0 0-.215-.616 1.596 1.596 0 0 0-.574-.397 5.603 5.603 0 0 0-.814-.277l-1-.273c-.678-.185-1.215-.456-1.612-.814-.394-.358-.591-.832-.591-1.421 0-.488.132-.913.397-1.277s.623-.646 1.074-.847a3.675 3.675 0 0 1 1.529-.306c.573 0 1.078.101 1.517.302.441.201.788.478 1.041.831.253.35.386.752.397 1.207h-1.231zm4.01 2.471v3.769h-1.236v-8.463h1.219v3.149h.079c.149-.342.376-.613.682-.814s.705-.302 1.198-.302c.435 0 .815.09 1.141.269.328.179.581.446.76.802.182.353.273.793.273 1.322v4.037h-1.236v-3.888c0-.466-.12-.826-.359-1.083-.24-.259-.573-.388-1-.388-.292 0-.554.062-.785.186a1.34 1.34 0 0 0-.541.545c-.129.237-.194.523-.194.86zm8.437 3.897c-.595 0-1.114-.136-1.558-.409s-.788-.654-1.033-1.145c-.245-.49-.368-1.063-.368-1.719 0-.658.123-1.234.368-1.727s.59-.876 1.033-1.149.963-.409 1.558-.409c.595 0 1.114.136 1.558.409s.788.656 1.033 1.149c.245.493.368 1.069.368 1.727 0 .656-.123 1.229-.368 1.719s-.59.872-1.033 1.145c-.444.273-.963.409-1.558.409zm.005-1.037c.386 0 .705-.102.959-.306s.441-.475.562-.814c.124-.339.186-.712.186-1.12 0-.405-.062-.777-.186-1.116-.121-.342-.309-.616-.562-.822s-.573-.31-.959-.31c-.388 0-.711.103-.967.31a1.855 1.855 0 0 0-.566.822 3.299 3.299 0 0 0-.182 1.116c0 .408.061.781.182 1.12.124.339.313.61.566.814.256.204.578.306.967.306zm5.516.909-1.868-6.347h1.277l1.244 4.661h.062l1.248-4.661h1.277l1.24 4.64h.062l1.236-4.64h1.277l-1.864 6.347h-1.26l-1.289-4.583H59.6l-1.289 4.583h-1.256zm10.769.128c-.625 0-1.164-.134-1.616-.401a2.72 2.72 0 0 1-1.041-1.136c-.242-.49-.364-1.065-.364-1.723 0-.65.121-1.223.364-1.719a2.82 2.82 0 0 1 1.025-1.161c.441-.278.956-.417 1.545-.417.358 0 .705.059 1.041.178s.638.304.905.558c.267.253.478.583.632.988.154.402.231.891.231 1.467v.438h-5.045v-.926h3.835c0-.325-.066-.613-.198-.864a1.499 1.499 0 0 0-.558-.599 1.559 1.559 0 0 0-.835-.219c-.347 0-.65.085-.909.256a1.714 1.714 0 0 0-.595.661c-.138.27-.207.563-.207.88v.723c0 .424.074.785.223 1.083.151.298.362.525.632.682.27.154.585.231.946.231.234 0 .448-.033.641-.099a1.32 1.32 0 0 0 .822-.806l1.169.211a2.128 2.128 0 0 1-.504.905c-.24.256-.541.456-.905.599a3.4 3.4 0 0 1-1.236.211zm4.094-.128v-6.347h1.194v1.008h.066c.116-.342.32-.61.612-.806a1.753 1.753 0 0 1 1-.298 5.917 5.917 0 0 1 .525.029v1.182a2.074 2.074 0 0 0-.265-.045 2.559 2.559 0 0 0-.38-.029c-.292 0-.552.062-.781.186a1.378 1.378 0 0 0-.736 1.244v3.876h-1.236z" style="fill:var(--color2, #101828)"/>
    </symbol>
    <symbol id="icon-Toilet" viewBox="0 0 78 32">
      <path fill="#f2f4f7" d="M16 0h45.818c8.837 0 16 7.163 16 16s-7.163 16-16 16H16C7.163 32 0 24.837 0 16S7.163 0 16 0z" style="fill:var(--color1, #f2f4f7)"/>
      <path fill="#101828" d="M24 10.545c.881 0 1.486.748 1.836 1.506.346.752.556 1.732.585 2.793l.003.246v5.758a.61.61 0 0 1-.391.568.61.61 0 0 1-.239.039l-.075-.009L24 21.16l-1.719.286a.597.597 0 0 1-.219-.004l-.072-.019-1.627-.542-1.627.542a.61.61 0 0 1-.516-.063.606.606 0 0 1-.277-.44l-.004-.072v-1.774c-.322.333-.725.562-1.212.562-.881 0-1.486-.748-1.836-1.506-.372-.809-.588-1.884-.588-3.039s.215-2.23.588-3.039c.334-.724.901-1.438 1.718-1.501l.118-.005H24zm0 1.213h-5.587c.055.097.104.195.15.294.373.809.588 1.884.588 3.039v4.917l1.021-.341a.612.612 0 0 1 .383 0l1.676.559 1.67-.279a.604.604 0 0 1 .199 0l1.113.186v-5.042c0-1.021-.192-1.915-.477-2.531-.308-.668-.612-.802-.735-.802zm-7.273 0c-.123 0-.427.133-.735.802-.285.616-.477 1.511-.477 2.531s.192 1.915.477 2.532c.308.669.612.802.735.802s.427-.133.735-.802c.285-.616.477-1.511.477-2.531s-.192-1.915-.477-2.531c-.308-.668-.612-.802-.735-.802zm0 2.121c.335 0 .606.542.606 1.212s-.271 1.212-.606 1.212c-.335 0-.606-.542-.606-1.212s.272-1.212.606-1.212zM34.291 13v-1.099h6.55V13h-2.64v7.364h-1.273V13h-2.636zm9.651 7.492c-.595 0-1.114-.136-1.558-.409s-.788-.654-1.033-1.145c-.245-.49-.368-1.063-.368-1.719 0-.658.123-1.234.368-1.727s.59-.876 1.033-1.149.963-.409 1.558-.409c.595 0 1.114.136 1.558.409s.788.656 1.033 1.149c.245.493.368 1.069.368 1.727 0 .656-.123 1.229-.368 1.719s-.59.872-1.033 1.145c-.444.273-.963.409-1.558.409zm.004-1.037c.386 0 .705-.102.959-.306s.441-.475.562-.814c.124-.339.186-.712.186-1.12 0-.405-.062-.777-.186-1.116-.121-.342-.309-.616-.562-.822s-.573-.31-.959-.31c-.388 0-.711.103-.967.31a1.855 1.855 0 0 0-.566.822 3.299 3.299 0 0 0-.182 1.116c0 .408.061.781.182 1.12.124.339.313.61.566.814.256.204.578.306.967.306zm4.333.909v-6.347h1.236v6.347h-1.236zm.624-7.327a.787.787 0 0 1-.554-.215.701.701 0 0 1-.227-.521c0-.204.076-.377.227-.521.154-.146.339-.219.554-.219s.398.073.55.219a.685.685 0 0 1 .231.521.694.694 0 0 1-.231.521.774.774 0 0 1-.55.215zm3.51-1.136v8.463h-1.236v-8.463h1.236zm4.397 8.591c-.625 0-1.164-.134-1.616-.401a2.72 2.72 0 0 1-1.041-1.136c-.242-.49-.364-1.065-.364-1.723 0-.65.121-1.223.364-1.719a2.82 2.82 0 0 1 1.025-1.161c.441-.278.956-.417 1.545-.417.358 0 .705.059 1.041.178s.638.304.905.558c.267.253.478.583.632.988.154.402.231.891.231 1.467v.438h-5.045v-.926h3.835c0-.325-.066-.613-.198-.864a1.499 1.499 0 0 0-.558-.599 1.559 1.559 0 0 0-.835-.219c-.347 0-.65.085-.909.256a1.714 1.714 0 0 0-.595.661c-.138.27-.207.563-.207.88v.723c0 .424.074.785.223 1.083.152.298.362.525.632.682.27.154.585.231.946.231.234 0 .448-.033.641-.099a1.32 1.32 0 0 0 .822-.806l1.169.211a2.128 2.128 0 0 1-.504.905c-.24.256-.541.456-.905.599a3.4 3.4 0 0 1-1.236.211zm7.057-6.475v.992H60.4v-.992h3.467zm-2.537-1.521h1.236V18.5c0 .24.036.42.107.541.072.118.164.2.277.244.116.041.241.062.376.062.099 0 .186-.007.26-.021l.174-.033.223 1.021a2.458 2.458 0 0 1-.802.133c-.325.006-.628-.052-.909-.174s-.508-.308-.682-.562c-.174-.253-.26-.572-.26-.955v-6.26z" style="fill:var(--color2, #101828)"/>
    </symbol>
    <symbol id="icon-Water" viewBox="0 0 80 32">
      <path fill="#f2f4f7" d="M16 0h48c8.837 0 16 7.163 16 16s-7.163 16-16 16H16C7.163 32 0 24.837 0 16S7.163 0 16 0z" style="fill:var(--color1, #f2f4f7)"/>
      <path fill="none" stroke="#000" stroke-miterlimit="10" stroke-width="1.091" d="M24.455 17.818c0 2.511-1.58 4.091-4.091 4.091s-4.091-1.58-4.091-4.091c0-2.694 2.933-6.331 3.832-7.383a.332.332 0 0 1 .259-.119.347.347 0 0 1 .259.119c.899 1.052 3.832 4.689 3.832 7.383z" style="stroke:var(--color3, #000)"/>
      <path fill="none" stroke="#000" stroke-linecap="round" stroke-linejoin="round" stroke-width="1.091" d="M22.864 18.045a2.043 2.043 0 0 1-2.045 2.045" style="stroke:var(--color3, #000)"/>
      <path fill="#101828" d="m36.303 20.364-2.347-8.463h1.343l1.649 6.554h.078l1.715-6.554h1.331l1.715 6.558h.078l1.645-6.558h1.347l-2.351 8.463h-1.285l-1.781-6.339h-.066l-1.781 6.339h-1.289zm10.841.14c-.402 0-.766-.074-1.091-.223a1.845 1.845 0 0 1-.773-.657c-.187-.287-.281-.638-.281-1.054 0-.358.069-.653.207-.884s.324-.415.558-.55c.234-.135.496-.237.785-.306s.584-.121.884-.157l.926-.107c.237-.03.409-.078.517-.145s.161-.174.161-.322v-.029c0-.361-.102-.64-.306-.839-.201-.198-.501-.298-.901-.298-.416 0-.744.092-.983.277a1.483 1.483 0 0 0-.492.607l-1.161-.264c.138-.386.339-.697.603-.934.267-.24.574-.413.921-.521.347-.11.712-.165 1.095-.165.253 0 .522.03.806.091.286.058.554.165.802.322.251.157.456.382.616.674.16.289.24.665.24 1.128v4.215H49.07v-.868h-.05c-.08.16-.2.317-.359.471s-.365.282-.616.384a2.389 2.389 0 0 1-.901.153zm.268-.992c.342 0 .634-.067.876-.202.245-.135.431-.311.558-.529.129-.22.194-.456.194-.707v-.818a.647.647 0 0 1-.256.124 4.049 4.049 0 0 1-.426.095c-.16.025-.315.048-.467.07l-.38.05c-.24.03-.459.081-.657.153a1.126 1.126 0 0 0-.471.31c-.116.132-.174.309-.174.529 0 .306.113.537.339.694.226.154.514.231.864.231zm7.472-5.495v.992h-3.467v-.992h3.467zm-2.537-1.521h1.236V18.5c0 .24.036.42.108.541.072.118.164.2.277.244.116.041.241.062.376.062.099 0 .186-.007.26-.021l.174-.033.223 1.021a2.45 2.45 0 0 1-.802.133c-.325.006-.628-.052-.909-.174s-.508-.308-.682-.562c-.174-.253-.26-.572-.26-.955v-6.26zm6.571 7.996c-.625 0-1.164-.134-1.616-.401a2.72 2.72 0 0 1-1.041-1.136c-.242-.49-.364-1.065-.364-1.723 0-.65.121-1.223.364-1.719a2.82 2.82 0 0 1 1.025-1.161c.441-.278.956-.417 1.545-.417.358 0 .705.059 1.041.178s.638.304.905.558c.267.253.478.583.632.988.154.402.231.891.231 1.467v.438h-5.045v-.926h3.835c0-.325-.066-.613-.198-.864a1.499 1.499 0 0 0-.558-.599 1.559 1.559 0 0 0-.835-.219c-.347 0-.65.085-.909.256a1.714 1.714 0 0 0-.595.661c-.138.27-.207.563-.207.88v.723c0 .424.074.785.223 1.083.151.298.362.525.632.682.27.154.585.231.946.231.234 0 .448-.033.641-.099a1.32 1.32 0 0 0 .822-.806l1.169.211a2.128 2.128 0 0 1-.504.905c-.24.256-.541.456-.905.599a3.4 3.4 0 0 1-1.236.211zm4.094-.128v-6.347h1.194v1.008h.066c.116-.342.32-.61.612-.806a1.753 1.753 0 0 1 1-.298 5.917 5.917 0 0 1 .525.029v1.182a2.118 2.118 0 0 0-.264-.045 2.559 2.559 0 0 0-.38-.029c-.292 0-.552.062-.781.186a1.381 1.381 0 0 0-.735 1.244v3.876h-1.236z" style="fill:var(--color2, #101828)"/>
    </symbol>
    <symbol id="icon-map-pin-1" viewBox="0 0 32 32">
      <path stroke-linecap="round" stroke-linejoin="round" stroke-width="2.4" d="M28 13.333c0 9.333-12 17.333-12 17.333s-12-8-12-17.333a12.003 12.003 0 0 1 12-12 12.003 12.003 0 0 1 12 12z"/>
      <path stroke-linecap="round" stroke-linejoin="round" stroke-width="2.4" d="M16 17.333a4 4 0 1 0 0-8 4 4 0 0 0 0 8z"/>
    </symbol>
  </defs>
</svg>
