<svg xmlns="http://www.w3.org/2000/svg" aria-hidden="true" style="position:absolute;width:0;height:0;overflow:hidden">
  <defs>
    <symbol id="icon-Vector" viewBox="0 0 40 32">
      <path d="M19.38 0c-1.876 0-3.695.641-5.146 1.812s-2.446 2.801-2.814 4.613l-.145.719a1.208 1.208 0 0 0 .164.947 1.25 1.25 0 0 0 1.304.54 1.238 1.238 0 0 0 .98-1.006l.148-.716a5.527 5.527 0 0 1 2.171-3.351 5.685 5.685 0 0 1 7.498.733 5.483 5.483 0 0 1 1.459 3.706c0 1.469-.593 2.878-1.647 3.917s-2.486 1.623-3.978 1.624H1.249c-.332 0-.649.13-.884.36a1.217 1.217 0 0 0 0 1.74c.234.231.552.36.884.36h18.125c2.12-.051 4.136-.916 5.617-2.41s2.311-3.499 2.311-5.587-.828-4.094-2.308-5.589a8.191 8.191 0 0 0-5.616-2.414zm14.37 11.077c-1.658 0-3.247.648-4.419 1.802S27.5 15.598 27.5 17.23c0 .326.132.639.366.87s.552.36.884.36.649-.13.884-.36a1.22 1.22 0 0 0 .366-.87c0-.73.22-1.444.632-2.051s.998-1.08 1.683-1.36c.685-.279 1.439-.353 2.167-.21s1.396.494 1.92 1.011a3.65 3.65 0 0 1 .813 4.024 3.709 3.709 0 0 1-1.381 1.657 3.79 3.79 0 0 1-2.083.622h-32.5c-.332 0-.649.13-.884.361a1.22 1.22 0 0 0 0 1.74c.234.23.552.36.884.36h24.375c.829.002 1.623.327 2.208.906s.913 1.361.911 2.177c-.002.816-.333 1.598-.92 2.174s-1.383.898-2.212.897c-.746.001-1.469-.259-2.04-.733s-.952-1.132-1.078-1.856l-.012-.074a1.235 1.235 0 0 0-.947-1.031 1.26 1.26 0 0 0-1.319.497 1.216 1.216 0 0 0-.199.939l.013.074c.222 1.299.905 2.479 1.927 3.33s2.317 1.317 3.655 1.317c1.493.001 2.926-.582 3.983-1.621s1.652-2.447 1.655-3.918c0-1.14-.35-2.198-.947-3.077h3.447c1.658 0 3.247-.648 4.419-1.802s1.831-2.719 1.831-4.351-.658-3.197-1.831-4.351a6.3 6.3 0 0 0-4.419-1.802z"/>
      <path d="m19.38 0 .247-9.997-.125-.003h-.125l.002 10zm-7.96 6.425L1.621 4.431l-.003.016 9.803 1.978zm-.145.718 9.724 2.331.042-.176.036-.178-9.803-1.978zm2.45.483L3.931 5.609l-.038.184-.031.185 9.863 1.647zm.148-.716zM25 7.998h10v-.025l-10 .025zm-5.625 5.54v10h.004l-.004-10zM0 14.769zM19.375 16v10h.121l.121-.003L19.376 16zM30 17.231zM0 22.154zm25.625 1.231.02-10h-.02v10zm-.013 6.153.02-10h-.027l.007 10zm-3.117-2.589-9.86 1.669.003.017.003.017 9.854-1.703zm-.012-.074-9.907 1.363.021.153.026.152 9.86-1.669zm-2.466.404 9.86-1.669-.025-.149-.03-.148-9.805 1.966zm.013.074-9.86 1.669.003.017 9.857-1.686zM25.612 32l.004-10h-.006l.002 10zm5.638-5.538 10 .018v-.018h-10zm-.947-3.077v-10H11.411l10.622 15.623 8.27-5.623zM19.378-10A18.196 18.196 0 0 0 7.954-5.97L20.515 9.593c-.339.273-.74.406-1.133.406l-.004-20zM7.953-5.97A17.973 17.973 0 0 0 1.62 4.431l19.598 3.988c-.1.49-.362.899-.704 1.175L7.953-5.969zM1.617 4.447l-.145.719 19.605 3.955.145-.719L1.617 4.447zm-.066.365a11.209 11.209 0 0 0-.143 4.534l19.705-3.425a8.788 8.788 0 0 1-.112 3.553L1.552 4.811zm-.144 4.534a11.218 11.218 0 0 0 1.656 4.207L19.816 2.628a8.768 8.768 0 0 1 1.296 3.293L1.407 9.346zm1.656 4.207a11.228 11.228 0 0 0 3.148 3.19L17.363.141a8.753 8.753 0 0 1 2.453 2.487L3.063 13.553zm3.148 3.191a11.266 11.266 0 0 0 4.103 1.701l3.864-19.623a8.75 8.75 0 0 1 3.185 1.32L6.211 16.744zm4.103 1.701c1.461.288 2.966.283 4.425-.014l-3.99-19.598a8.737 8.737 0 0 1 3.429-.011l-3.864 19.623zm4.426-.015a11.26 11.26 0 0 0 4.093-1.727L7.574.173a8.734 8.734 0 0 1 3.177-1.341l3.99 19.598zm4.092-1.727a11.23 11.23 0 0 0 3.127-3.211L5.135 2.677A8.756 8.756 0 0 1 7.572.174l11.259 16.53zm3.128-3.211a11.219 11.219 0 0 0 1.629-4.219L3.862 5.978a8.787 8.787 0 0 1 1.274-3.302L21.96 13.491zm1.56-3.849.147-.716L4.078 4.893l-.147.716L23.52 9.643zm.146-.713a4.48 4.48 0 0 1-1.745 2.719L10.165-4.531A15.524 15.524 0 0 0 4.078 4.89l19.587 4.041zm-1.745 2.719c-.87.632-1.924.91-2.959.808l1.946-19.905a15.685 15.685 0 0 0-10.743 2.916l11.756 16.18zm-2.959.808a4.347 4.347 0 0 1-2.773-1.387L30.893-2.487a15.648 15.648 0 0 0-9.985-4.961l-1.946 19.905zm-2.773-1.387A4.513 4.513 0 0 1 15 8.022l20-.05a15.49 15.49 0 0 0-4.107-10.46L16.189 11.069zM15 7.998c0-1.233.499-2.383 1.335-3.207L30.37 19.039A15.498 15.498 0 0 0 35 7.998H15zm1.335-3.207a4.324 4.324 0 0 1 3.036-1.252l.009 20a15.673 15.673 0 0 0 10.991-4.5L16.336 4.791zm3.04-1.253H1.25v20h18.125v-20zm-18.125 0a11.258 11.258 0 0 0-7.9 3.235L7.382 21.024a8.74 8.74 0 0 1-6.132 2.514v-20zm-7.9 3.235A11.22 11.22 0 0 0-10 14.769h20c0 2.376-.96 4.623-2.618 6.255L-6.65 6.773zM-10 14.769c0 3.029 1.224 5.902 3.35 7.996L7.382 8.514A8.777 8.777 0 0 1 10 14.769h-20zm3.35 7.996A11.258 11.258 0 0 0 1.25 26V6a8.74 8.74 0 0 1 6.132 2.514L-6.65 22.765zM1.25 26h18.125V6H1.25v20zm18.366-.003a18.192 18.192 0 0 0 12.478-5.367L17.891 6.549a1.809 1.809 0 0 1 1.244-.546l.482 19.994zm12.478-5.367a17.942 17.942 0 0 0 5.21-12.624l-20-.006c0-.571.228-1.088.587-1.45l14.203 14.081zm5.209-12.624a17.937 17.937 0 0 0-5.202-12.628L17.889 9.45A2.065 2.065 0 0 1 17.303 8l20 .006zM32.102-4.622a18.19 18.19 0 0 0-12.474-5.375l-.494 19.994c-.44-.011-.89-.19-1.243-.547L32.103-4.622zm1.648 5.699c-4.26 0-8.376 1.665-11.435 4.677l14.032 14.251a3.7 3.7 0 0 1-2.597 1.072v-20zM22.315 5.754A16.107 16.107 0 0 0 17.5 17.231h20a3.892 3.892 0 0 1-1.153 2.774L22.315 5.754zM17.5 17.231c0 3.029 1.224 5.902 3.35 7.996l14.032-14.251a8.777 8.777 0 0 1 2.618 6.255h-20zm3.35 7.996a11.258 11.258 0 0 0 7.9 3.235v-20a8.74 8.74 0 0 1 6.132 2.514L20.85 25.227zm7.9 3.235c2.934 0 5.779-1.146 7.9-3.235L22.618 10.976a8.74 8.74 0 0 1 6.132-2.514v20zm7.9-3.235A11.224 11.224 0 0 0 40 17.231H20c0-2.376.96-4.623 2.618-6.255L36.65 25.227zM40 17.231a6.352 6.352 0 0 1-1.093 3.564L22.358 9.564a13.648 13.648 0 0 0-2.357 7.667h20zm-1.093 3.564a6.259 6.259 0 0 1-2.815 2.284L28.539 4.56a13.735 13.735 0 0 0-6.181 5.004l16.549 11.231zm-2.816 2.284a6.2 6.2 0 0 1-3.532.344l3.844-19.627a13.807 13.807 0 0 0-7.865.764l7.553 18.519zm-3.531.344a6.235 6.235 0 0 1-3.174-1.677L43.418 7.495a13.763 13.763 0 0 0-7.014-3.698L32.56 23.424zm-3.174-1.677a6.337 6.337 0 0 1-1.76-3.255l19.604-3.96a13.681 13.681 0 0 0-3.812-7.036L29.386 21.746zm-1.76-3.255a6.365 6.365 0 0 1 .371-3.725l18.435 7.755a13.642 13.642 0 0 0 .798-7.991l-19.604 3.96zm.371-3.725a6.29 6.29 0 0 1 2.34-2.819l10.992 16.708a13.703 13.703 0 0 0 5.103-6.134l-18.435-7.755zm2.34-2.819a6.213 6.213 0 0 1 3.413-1.024v20c2.685 0 5.323-.783 7.58-2.268L30.338 11.947zm3.413-1.024H1.25v20h32.5v-20zm-32.5 0a11.258 11.258 0 0 0-7.9 3.235L7.382 28.409a8.74 8.74 0 0 1-6.132 2.514v-20zm-7.9 3.235A11.22 11.22 0 0 0-10 22.154h20c0 2.376-.96 4.623-2.618 6.255L-6.65 14.158zM-10 22.154c0 3.029 1.224 5.902 3.35 7.996L7.382 15.899A8.777 8.777 0 0 1 10 22.154h-20zm3.35 7.996a11.258 11.258 0 0 0 7.9 3.235v-20a8.74 8.74 0 0 1 6.132 2.514L-6.65 30.15zm7.9 3.235h24.375v-20H1.25v20zm24.355 0a6.848 6.848 0 0 1-4.803-1.983l14.061-14.223a13.15 13.15 0 0 0-9.219-3.794l-.039 20zm-4.802-1.983a6.946 6.946 0 0 1-2.059-4.954l20 .041a13.05 13.05 0 0 0-3.881-9.309L20.802 31.403zm-2.059-4.955a6.947 6.947 0 0 1 2.078-4.945l14.004 14.279a13.053 13.053 0 0 0 3.918-9.293l-20-.041zm2.078-4.945a6.852 6.852 0 0 1 4.81-1.964l-.039 20a13.15 13.15 0 0 0 9.233-3.757L20.822 21.502zm4.783-1.964a6.813 6.813 0 0 1 4.357 1.574L17.183 36.497a13.192 13.192 0 0 0 8.437 3.041l-.014-20zm4.357 1.575a6.9 6.9 0 0 1 2.387 4.133l-19.708 3.405a13.099 13.099 0 0 0 4.542 7.846l12.779-15.385zm2.393 4.167-.013-.074-19.719 3.338.012.074 19.72-3.338zm.034.232a11.225 11.225 0 0 0-1.502-4.255L13.751 31.57a8.788 8.788 0 0 1-1.175-3.331l19.813-2.727zm-1.502-4.255a11.253 11.253 0 0 0-3.024-3.297L16.108 34.141a8.756 8.756 0 0 1-2.357-2.571l17.136-10.313zm-3.024-3.298a11.255 11.255 0 0 0-4.03-1.848l-4.597 19.465a8.736 8.736 0 0 1-3.128-1.435L27.863 17.96zm-4.029-1.848a11.26 11.26 0 0 0-4.411-.154l3.232 19.737a8.726 8.726 0 0 1-3.418-.119l4.597-19.465zm-4.411-.153c-1.466.24-2.875.768-4.144 1.56L25.87 34.484a8.733 8.733 0 0 1-3.215 1.211l-3.232-19.737zm-4.144 1.56a11.239 11.239 0 0 0-3.243 3.07l16.361 11.503a8.736 8.736 0 0 1-2.527 2.392L15.279 17.517zm-3.243 3.07a11.208 11.208 0 0 0-1.799 4.132l19.567 4.138a8.782 8.782 0 0 1-1.407 3.233L12.036 20.588zm-1.8 4.133a11.231 11.231 0 0 0-.024 4.525l19.609-3.933a8.786 8.786 0 0 1-.018 3.546l-19.567-4.138zm-.078 4.227.012.074 19.72-3.338-.013-.074-19.719 3.338zm.015.091a15.558 15.558 0 0 0 5.386 9.33l12.796-15.371a4.447 4.447 0 0 1 1.532 2.669l-19.714 3.372zm5.386 9.329A15.714 15.714 0 0 0 25.614 42l-.004-20a4.29 4.29 0 0 1 2.744.997L15.558 38.368zM25.608 42a15.681 15.681 0 0 0 10.995-4.487L22.587 23.246A4.32 4.32 0 0 1 25.617 22l-.009 20zm10.995-4.487A15.507 15.507 0 0 0 41.25 26.48l-20-.036a4.497 4.497 0 0 1 1.337-3.198l14.016 14.267zm4.647-11.051c0-3.221-.996-6.226-2.678-8.7L22.033 29.007a4.547 4.547 0 0 1-.783-2.546h20zm-10.947 6.923h3.447v-20h-3.447v20zm3.447 0c4.26 0 8.376-1.665 11.435-4.677L31.153 14.457a3.7 3.7 0 0 1 2.597-1.072v20zm11.435-4.677A16.107 16.107 0 0 0 50 17.231H30c0-1.071.433-2.065 1.153-2.774l14.032 14.251zM50 17.231c0-4.335-1.75-8.46-4.815-11.477L31.153 20.005A3.894 3.894 0 0 1 30 17.231h20zM45.185 5.754A16.299 16.299 0 0 0 33.75 1.077v20a3.7 3.7 0 0 1-2.597-1.072L45.185 5.754z"/>
    </symbol>
    <symbol id="icon-star" viewBox="0 0 1024 1024">
    <path stroke="#000" stroke-width="76.8" d="M396.813 300.61 512 82.291 627.187 300.61a70.408 70.408 0 0 0 50.26 36.518l243.232 42.084-172.038 177.014a70.396 70.396 0 0 0-19.2 59.087l35.136 244.328-221.512-108.915a70.38 70.38 0 0 0-62.127 0L259.424 859.641l35.137-244.328a70.401 70.401 0 0 0-19.199-59.087l-172.04-177.014 243.229-42.084a70.398 70.398 0 0 0 50.262-36.518zm532.32 69.904zM248.538 864.992h.008-.008z"/>
  </symbol>
    <symbol id="icon-Button-1" viewBox="0 0 32 32">
      <path d="M1.826 6.06h8.686a.276.276 0 0 0 .194-.079l.834-.814c.243-.237.565-.367.908-.367H25.62a1.84 1.84 0 0 1 1.523.795l1.579 2.31c.224.328.244.747.054 1.095s-.56.563-.964.563h-6.789v.669H24.5c.922 0 1.751.534 2.112 1.361l2.036 4.655 1.783.696c.952.372 1.568 1.258 1.568 2.259v4.311c0 .643-.536 1.166-1.195 1.166h-2.075c-.241 1.427-1.515 2.52-3.045 2.52s-2.804-1.092-3.045-2.52H11.297c-.241 1.427-1.515 2.52-3.045 2.52s-2.804-1.092-3.045-2.52H1.062c-.586 0-1.063-.465-1.063-1.037V7.84c0-.982.819-1.781 1.826-1.781zm23.859 20.156c1.146 0 2.078-.909 2.078-2.027s-.932-2.027-2.078-2.027-2.078.909-2.078 2.027.932 2.027 2.078 2.027zm-4.661-2.52h1.615l.014-.073a2.138 2.138 0 0 1 .037-.165l.006-.024a2.12 2.12 0 0 1 .04-.136l.013-.039c.01-.032.021-.063.033-.094l.02-.05a1.377 1.377 0 0 1 .056-.133l.035-.076.027-.053.038-.072a1.353 1.353 0 0 1 .071-.122l.03-.05.046-.07.031-.046c.017-.025.036-.049.054-.074l.028-.039.076-.094.011-.014.092-.104.03-.031.067-.069.039-.037.063-.059.043-.038.063-.054.046-.037.065-.05.048-.035.068-.047.048-.032a1.8 1.8 0 0 1 .073-.046l.048-.029.082-.046.042-.023.118-.059.009-.004c.043-.02.086-.039.13-.057l.043-.017.091-.035.052-.018.084-.028.057-.017.082-.023.06-.015a1.11 1.11 0 0 1 .083-.018l.061-.013.085-.015a2.218 2.218 0 0 1 .15-.02c.019-.002.038-.005.058-.006a1.68 1.68 0 0 1 .1-.007l.049-.003a2.514 2.514 0 0 1 .302 0c.017 0 .033.002.049.003l.1.007.058.006.09.011.061.009a1.159 1.159 0 0 1 .146.028l.083.018.06.015.082.023.057.017.084.028.052.018.091.035.043.017c.044.018.087.037.13.057l.009.004.118.059.042.023.082.046.048.029.073.046.048.032.068.047a1.456 1.456 0 0 1 .113.085l.046.037.063.054.043.038.063.059a1.328 1.328 0 0 1 .106.106l.03.031c.031.034.062.068.092.104l.011.014a3.464 3.464 0 0 1 .158.207l.031.046.046.07.03.05.042.07.029.052.038.072.027.053.035.076.023.052.033.081.02.05.033.094.013.039.04.136.006.024c.01.038.019.076.027.115l.01.05.014.073h2.074a.184.184 0 0 0 .186-.182v-2.062h-.787v-.984h.787v-1.264c0-.596-.366-1.124-.933-1.345l-1.888-.737h-7.146v6.574zm0-7.558h6.48l-1.818-4.158a1.287 1.287 0 0 0-1.185-.763h-3.477v4.921zM8.252 26.216c1.146 0 2.078-.909 2.078-2.027s-.932-2.027-2.078-2.027a1.91 1.91 0 0 0-.107.003c-.955.047-1.742.727-1.929 1.616l-.019.1a1.957 1.957 0 0 0-.024.308c0 1.118.932 2.027 2.078 2.027zm-7.243-5.748h.787v.984h-.787v2.192c0 .029.024.052.054.052h4.144l.014-.072.01-.051a2.031 2.031 0 0 1 .033-.138 2.092 2.092 0 0 1 .054-.176l.032-.093.02-.051.032-.08.024-.054.035-.074.027-.054.038-.072.029-.052c.014-.024.027-.047.042-.07a1.358 1.358 0 0 1 .077-.12.917.917 0 0 1 .031-.046l.053-.073.029-.04a3.305 3.305 0 0 1 .179-.212l.03-.032a2.148 2.148 0 0 1 .17-.163l.044-.038.063-.053.046-.037.065-.05.048-.035.067-.047.049-.033.072-.045.048-.029.081-.046.042-.023a2.121 2.121 0 0 1 .127-.063c.043-.02.086-.039.13-.057l.043-.017.091-.035.053-.018.084-.028.057-.017.082-.023.06-.015a1.11 1.11 0 0 1 .083-.018l.061-.013.085-.015a2.218 2.218 0 0 1 .151-.02c.019-.002.038-.005.058-.006a1.68 1.68 0 0 1 .1-.007l.049-.003a2.514 2.514 0 0 1 .302 0c.017 0 .033.002.049.003l.1.007.058.006.09.011.06.009a1.159 1.159 0 0 1 .146.028l.083.018.06.015.082.023.057.017.084.028a3.247 3.247 0 0 1 .144.053l.043.017c.044.018.087.037.13.057l.01.005.117.058.042.023a3.326 3.326 0 0 1 .129.075l.072.045.049.033.067.047a1.456 1.456 0 0 1 .113.085l.046.037.063.053.044.038.063.059.039.037c.023.022.045.046.067.069l.03.031c.031.034.062.068.092.104l.012.015c.025.031.051.062.075.094l.029.039.054.074.031.046.046.07.031.05.042.07.029.052.038.072.026.053.035.076.023.052.033.081.019.05c.012.031.022.063.033.095l.013.039.04.136.005.022.028.117.009.048.015.074h8.717V9.073c0-.272.226-.492.504-.492h7.293c.012 0 .051 0 .075-.044s.003-.074-.004-.084l-1.578-2.31a.825.825 0 0 0-.684-.357H12.453a.28.28 0 0 0-.195.079l-.834.814a1.29 1.29 0 0 1-.908.367H1.83a.808.808 0 0 0-.817.797V20.47z"/>
      <path d="M14.081 9.838h3.191c.644 0 1.169.511 1.169 1.14V21.51a.498.498 0 0 1-.504.492h-4.52a.498.498 0 0 1-.504-.492V10.978c0-.629.524-1.14 1.169-1.14zm-.16 11.181h3.511v-5.787h-3.511v5.787zm0-6.771h3.511v-3.269a.158.158 0 0 0-.16-.156h-3.191c-.088 0-.16.07-.16.156v3.269z"/>
    </symbol>
    <symbol id="icon-Button-2" viewBox="0 0 32 32">
      <path d="M1.826 6.06h8.686a.276.276 0 0 0 .194-.079l.834-.814c.243-.237.565-.367.908-.367H25.62a1.84 1.84 0 0 1 1.523.795l1.579 2.31c.224.328.244.747.054 1.095s-.56.563-.964.563h-6.789v.669H24.5c.922 0 1.751.534 2.112 1.361l2.036 4.655 1.783.696c.952.372 1.568 1.258 1.568 2.259v4.311c0 .643-.536 1.166-1.195 1.166h-2.075c-.241 1.427-1.515 2.52-3.045 2.52s-2.804-1.092-3.045-2.52H11.297c-.241 1.427-1.515 2.52-3.045 2.52s-2.804-1.092-3.045-2.52H1.062c-.586 0-1.063-.465-1.063-1.037V7.84c0-.982.819-1.781 1.826-1.781zm23.859 20.156c1.146 0 2.078-.909 2.078-2.027s-.932-2.027-2.078-2.027-2.078.909-2.078 2.027.932 2.027 2.078 2.027zm-4.661-2.52h1.615l.014-.073a2.138 2.138 0 0 1 .037-.165l.006-.024a2.12 2.12 0 0 1 .04-.136l.013-.039c.01-.032.021-.063.033-.094l.02-.05a1.377 1.377 0 0 1 .056-.133l.035-.076.027-.053.038-.072a1.353 1.353 0 0 1 .071-.122l.03-.05.046-.07.031-.046c.017-.025.036-.049.054-.074l.028-.039.076-.094.011-.014.092-.104.03-.031.067-.069.039-.037.063-.059.043-.038.063-.054.046-.037.065-.05.048-.035.068-.047.048-.032a1.8 1.8 0 0 1 .073-.046l.048-.029.082-.046.042-.023.118-.059.009-.004c.043-.02.086-.039.13-.057l.043-.017.091-.035.052-.018.084-.028.057-.017.082-.023.06-.015a1.11 1.11 0 0 1 .083-.018l.061-.013.085-.015a2.218 2.218 0 0 1 .15-.02c.019-.002.038-.005.058-.006a1.68 1.68 0 0 1 .1-.007l.049-.003a2.514 2.514 0 0 1 .302 0c.017 0 .033.002.049.003l.1.007.058.006.09.011.061.009a1.159 1.159 0 0 1 .146.028l.083.018.06.015.082.023.057.017.084.028.052.018.091.035.043.017c.044.018.087.037.13.057l.009.004.118.059.042.023.082.046.048.029.073.046.048.032.068.047a1.456 1.456 0 0 1 .113.085l.046.037.063.054.043.038.063.059a1.328 1.328 0 0 1 .106.106l.03.031c.031.034.062.068.092.104l.011.014a3.464 3.464 0 0 1 .158.207l.031.046.046.07.03.05.042.07.029.052.038.072.027.053.035.076.023.052.033.081.02.05.033.094.013.039.04.136.006.024c.01.038.019.076.027.115l.01.05.014.073h2.074a.184.184 0 0 0 .186-.182v-2.062h-.787v-.984h.787v-1.264c0-.596-.366-1.124-.933-1.345l-1.888-.737h-7.146v6.574zm0-7.558h6.48l-1.818-4.158a1.287 1.287 0 0 0-1.185-.763h-3.477v4.921zM8.252 26.216c1.146 0 2.078-.909 2.078-2.027s-.932-2.027-2.078-2.027a1.91 1.91 0 0 0-.107.003c-.955.047-1.742.727-1.929 1.616l-.019.1a1.957 1.957 0 0 0-.024.308c0 1.118.932 2.027 2.078 2.027zm-7.243-5.748h.787v.984h-.787v2.192c0 .029.024.052.054.052h4.144l.014-.072.01-.051a2.031 2.031 0 0 1 .033-.138 2.092 2.092 0 0 1 .054-.176l.032-.093.02-.051.032-.08.024-.054.035-.074.027-.054.038-.072.029-.052c.014-.024.027-.047.042-.07a1.358 1.358 0 0 1 .077-.12.917.917 0 0 1 .031-.046l.053-.073.029-.04a3.305 3.305 0 0 1 .179-.212l.03-.032a2.148 2.148 0 0 1 .17-.163l.044-.038.063-.053.046-.037.065-.05.048-.035.067-.047.049-.033.072-.045.048-.029.081-.046.042-.023a2.121 2.121 0 0 1 .127-.063c.043-.02.086-.039.13-.057l.043-.017.091-.035.053-.018.084-.028.057-.017.082-.023.06-.015a1.11 1.11 0 0 1 .083-.018l.061-.013.085-.015a2.218 2.218 0 0 1 .151-.02c.019-.002.038-.005.058-.006a1.68 1.68 0 0 1 .1-.007l.049-.003a2.514 2.514 0 0 1 .302 0c.017 0 .033.002.049.003l.1.007.058.006.09.011.06.009a1.159 1.159 0 0 1 .146.028l.083.018.06.015.082.023.057.017.084.028a3.247 3.247 0 0 1 .144.053l.043.017c.044.018.087.037.13.057l.01.005.117.058.042.023a3.326 3.326 0 0 1 .129.075l.072.045.049.033.067.047a1.456 1.456 0 0 1 .113.085l.046.037.063.053.044.038.063.059.039.037c.023.022.045.046.067.069l.03.031c.031.034.062.068.092.104l.012.015c.025.031.051.062.075.094l.029.039.054.074.031.046.046.07.031.05.042.07.029.052.038.072.026.053.035.076.023.052.033.081.019.05c.012.031.022.063.033.095l.013.039.04.136.005.022.028.117.009.048.015.074h8.717V9.073c0-.272.226-.492.504-.492h7.293c.012 0 .051 0 .075-.044s.003-.074-.004-.084l-1.578-2.31a.825.825 0 0 0-.684-.357H12.453a.28.28 0 0 0-.195.079l-.834.814a1.29 1.29 0 0 1-.908.367H1.83a.808.808 0 0 0-.817.797V20.47z"/>
      <path d="M3.875 9.838h6.17c.713 0 1.293.566 1.293 1.262v2.87c0 .696-.58 1.262-1.293 1.262h-6.17c-.713 0-1.293-.566-1.293-1.262V11.1c0-.696.581-1.262 1.294-1.262zm-.284 4.132c0 .153.127.278.284.278h6.17a.28.28 0 0 0 .284-.278V11.1a.282.282 0 0 0-.284-.278h-6.17a.28.28 0 0 0-.284.278v2.87z"/>
    </symbol>
    <symbol id="icon-Button" viewBox="0 0 32 32">
      <path stroke-linecap="round" stroke-linejoin="round" stroke-width="2.4" d="M25.333 5.333H6.666A2.667 2.667 0 0 0 3.999 8v18.667a2.667 2.667 0 0 0 2.667 2.667h18.667A2.667 2.667 0 0 0 28 26.667V8a2.667 2.667 0 0 0-2.667-2.667zm-4-2.666V8M10.667 2.667V8M4 13.333h24"/>
    </symbol>
    <symbol id="icon-camper" viewBox="0 0 32 32">
      <path d="M1.826 6.06h8.686a.276.276 0 0 0 .194-.079l.834-.814c.243-.237.565-.367.908-.367H25.62a1.84 1.84 0 0 1 1.523.795l1.579 2.31c.224.328.244.747.054 1.095s-.56.563-.964.563h-6.789v.669H24.5c.922 0 1.751.534 2.112 1.361l2.036 4.655 1.783.696c.952.372 1.568 1.258 1.568 2.259v4.311c0 .643-.536 1.166-1.195 1.166h-2.075c-.241 1.427-1.515 2.52-3.045 2.52s-2.804-1.092-3.045-2.52H11.297c-.241 1.427-1.515 2.52-3.045 2.52s-2.804-1.092-3.045-2.52H1.062c-.586 0-1.063-.465-1.063-1.037V7.84c0-.982.819-1.781 1.826-1.781zm23.859 20.156c1.146 0 2.078-.909 2.078-2.027s-.932-2.027-2.078-2.027-2.078.909-2.078 2.027.932 2.027 2.078 2.027zm-4.661-2.52h1.615l.014-.073a2.138 2.138 0 0 1 .037-.165l.006-.024a2.12 2.12 0 0 1 .04-.136l.013-.039c.01-.032.021-.063.033-.094l.02-.05a1.377 1.377 0 0 1 .056-.133l.035-.076.027-.053.038-.072a1.353 1.353 0 0 1 .071-.122l.03-.05.046-.07.031-.046c.017-.025.036-.049.054-.074l.028-.039.076-.094.011-.014.092-.104.03-.031.067-.069.039-.037.063-.059.043-.038.063-.054.046-.037.065-.05.048-.035.068-.047.048-.032a1.8 1.8 0 0 1 .073-.046l.048-.029.082-.046.042-.023.118-.059.009-.004c.043-.02.086-.039.13-.057l.043-.017.091-.035.052-.018.084-.028.057-.017.082-.023.06-.015a1.11 1.11 0 0 1 .083-.018l.061-.013.085-.015a2.218 2.218 0 0 1 .15-.02c.019-.002.038-.005.058-.006a1.68 1.68 0 0 1 .1-.007l.049-.003a2.514 2.514 0 0 1 .302 0c.017 0 .033.002.049.003l.1.007.058.006.09.011.061.009a1.159 1.159 0 0 1 .146.028l.083.018.06.015.082.023.057.017.084.028.052.018.091.035.043.017c.044.018.087.037.13.057l.009.004.118.059.042.023.082.046.048.029.073.046.048.032.068.047a1.456 1.456 0 0 1 .113.085l.046.037.063.054.043.038.063.059a1.328 1.328 0 0 1 .106.106l.03.031c.031.034.062.068.092.104l.011.014a3.464 3.464 0 0 1 .158.207l.031.046.046.07.03.05.042.07.029.052.038.072.027.053.035.076.023.052.033.081.02.05.033.094.013.039.04.136.006.024c.01.038.019.076.027.115l.01.05.014.073h2.074a.184.184 0 0 0 .186-.182v-2.062h-.787v-.984h.787v-1.264c0-.596-.366-1.124-.933-1.345l-1.888-.737h-7.146v6.574zm0-7.558h6.48l-1.818-4.158a1.287 1.287 0 0 0-1.185-.763h-3.477v4.921zM8.252 26.216c1.146 0 2.078-.909 2.078-2.027s-.932-2.027-2.078-2.027a1.91 1.91 0 0 0-.107.003c-.955.047-1.742.727-1.929 1.616l-.019.1a1.957 1.957 0 0 0-.024.308c0 1.118.932 2.027 2.078 2.027zm-7.243-5.748h.787v.984h-.787v2.192c0 .029.024.052.054.052h4.144l.014-.072.01-.051a2.031 2.031 0 0 1 .033-.138 2.092 2.092 0 0 1 .054-.176l.032-.093.02-.051.032-.08.024-.054.035-.074.027-.054.038-.072.029-.052c.014-.024.027-.047.042-.07a1.358 1.358 0 0 1 .077-.12.917.917 0 0 1 .031-.046l.053-.073.029-.04a3.305 3.305 0 0 1 .179-.212l.03-.032a2.148 2.148 0 0 1 .17-.163l.044-.038.063-.053.046-.037.065-.05.048-.035.067-.047.049-.033.072-.045.048-.029.081-.046.042-.023a2.121 2.121 0 0 1 .127-.063c.043-.02.086-.039.13-.057l.043-.017.091-.035.053-.018.084-.028.057-.017.082-.023.06-.015a1.11 1.11 0 0 1 .083-.018l.061-.013.085-.015a2.218 2.218 0 0 1 .151-.02c.019-.002.038-.005.058-.006a1.68 1.68 0 0 1 .1-.007l.049-.003a2.514 2.514 0 0 1 .302 0c.017 0 .033.002.049.003l.1.007.058.006.09.011.06.009a1.159 1.159 0 0 1 .146.028l.083.018.06.015.082.023.057.017.084.028a3.247 3.247 0 0 1 .144.053l.043.017c.044.018.087.037.13.057l.01.005.117.058.042.023a3.326 3.326 0 0 1 .129.075l.072.045.049.033.067.047a1.456 1.456 0 0 1 .113.085l.046.037.063.053.044.038.063.059.039.037c.023.022.045.046.067.069l.03.031c.031.034.062.068.092.104l.012.015c.025.031.051.062.075.094l.029.039.054.074.031.046.046.07.031.05.042.07.029.052.038.072.026.053.035.076.023.052.033.081.019.05c.012.031.022.063.033.095l.013.039.04.136.005.022.028.117.009.048.015.074h8.717V9.073c0-.272.226-.492.504-.492h7.293c.012 0 .051 0 .075-.044s.003-.074-.004-.084l-1.578-2.31a.825.825 0 0 0-.684-.357H12.453a.28.28 0 0 0-.195.079l-.834.814a1.29 1.29 0 0 1-.908.367H1.83a.808.808 0 0 0-.817.797V20.47z"/>
      <path d="M14.081 9.838h3.191c.644 0 1.169.511 1.169 1.14V21.51a.498.498 0 0 1-.504.492h-4.52a.498.498 0 0 1-.504-.492V10.978c0-.629.524-1.14 1.169-1.14zm-.16 11.181h3.511v-5.787h-3.511v5.787zm0-6.771h3.511v-3.269a.158.158 0 0 0-.16-.156h-3.191c-.088 0-.16.07-.16.156v3.269zM3.875 9.838h6.17c.713 0 1.293.566 1.293 1.262v2.87c0 .696-.58 1.262-1.293 1.262h-6.17c-.713 0-1.293-.566-1.293-1.262V11.1c0-.696.581-1.262 1.294-1.262zM3.59 13.97c0 .153.127.278.284.278h6.17a.28.28 0 0 0 .284-.278V11.1a.282.282 0 0 0-.284-.278h-6.17a.28.28 0 0 0-.284.278v2.87z"/>
    </symbol>
    <symbol id="icon-Container-1" viewBox="0 0 32 32">
      <path stroke-linecap="round" stroke-linejoin="round" stroke-width="2.24" d="M3 26v-7a4.012 4.012 0 0 1 4-4h18a4.012 4.012 0 0 1 4 4v7m-5-11H6V8.5A2.504 2.504 0 0 1 8.5 6h15A2.504 2.504 0 0 1 26 8.5V15h-2z"/>
      <path stroke-linecap="round" stroke-linejoin="round" stroke-width="2.24" d="M3 26v-.5A1.504 1.504 0 0 1 4.5 24h23a1.504 1.504 0 0 1 1.5 1.5v.5M7 15v-1a2.002 2.002 0 0 1 2-2h5a2.002 2.002 0 0 1 2 2m0 0v1m0-1a2.008 2.008 0 0 1 2-2h5a2.002 2.002 0 0 1 2 2v1"/>
    </symbol>
    <symbol id="icon-Container" viewBox="0 0 32 32">
      <path stroke-linecap="round" stroke-linejoin="round" stroke-width="2.4" d="M22.667 14.667h2a2 2 0 0 0 0-4h-2v6.667m0 5.333V28H24a2.668 2.668 0 0 0 0-5.334h-1.333zM4 6.667a2.668 2.668 0 1 0 5.336 0 2.668 2.668 0 0 0-5.336 0z"/>
      <path stroke-linecap="round" stroke-linejoin="round" stroke-width="2.4" d="M6.667 9.333v4a1.335 1.335 0 0 0 1.334 1.334h4m-.001 0V24a1.33 1.33 0 0 0 1.334 1.333h4M12 14.667h5.333"/>
    </symbol>
    <symbol id="icon-Heart" viewBox="0 0 32 32">
      <path stroke-linecap="round" stroke-linejoin="round" stroke-width="3.067" d="M27.787 6.147a7.326 7.326 0 0 0-10.373 0L16.001 7.56l-1.413-1.413a7.333 7.333 0 0 0-10.374 0 7.333 7.333 0 0 0 0 10.374l11.787 11.787 11.787-11.787a7.345 7.345 0 0 0 2.15-5.187 7.33 7.33 0 0 0-2.15-5.187z"/>
    </symbol>
    <symbol id="icon-HeartRed" viewBox="0 0 32 32">
      <path fill="#e44848" stroke="#e44848" stroke-linecap="round" stroke-linejoin="round" stroke-width="3.067" d="M27.787 6.147a7.326 7.326 0 0 0-10.373 0L16.001 7.56l-1.413-1.413a7.333 7.333 0 0 0-10.374 0 7.333 7.333 0 0 0 0 10.374l11.787 11.787 11.787-11.787a7.345 7.345 0 0 0 2.15-5.187 7.33 7.33 0 0 0-2.15-5.187z" style="fill:var(--color1, #e44848);stroke:var(--color1, #e44848)"/>
    </symbol>
    <symbol id="icon-Horizontal-container" viewBox="0 0 32 32">
      <path stroke-linecap="round" stroke-linejoin="round" stroke-width="2.4" d="M25.333 20V4c-6.421 6.125-6.697 11.092-6.667 16h6.667zm0 0v8H24v-4M10.667 5.333V28m-4-22.667v4a4.003 4.003 0 0 0 4 4 4.003 4.003 0 0 0 4-4v-4"/>
    </symbol>
    <symbol id="icon-map-pin-1" viewBox="0 0 32 32">
      <path stroke-linecap="round" stroke-linejoin="round" stroke-width="2.4" d="M28 13.333c0 9.333-12 17.333-12 17.333s-12-8-12-17.333a12.003 12.003 0 0 1 12-12 12.003 12.003 0 0 1 12 12z"/>
      <path stroke-linecap="round" stroke-linejoin="round" stroke-width="2.4" d="M16 17.333a4 4 0 1 0 0-8 4 4 0 0 0 0 8z"/>
    </symbol>
    <symbol id="icon-map-pin" viewBox="0 0 32 32">
      <path stroke-linecap="round" stroke-linejoin="round" stroke-width="2.4" d="M28 13.333c0 9.333-12 17.333-12 17.333s-12-8-12-17.333a12.003 12.003 0 0 1 12-12 12.003 12.003 0 0 1 12 12z"/>
      <path stroke-linecap="round" stroke-linejoin="round" stroke-width="2.4" d="M16 17.333a4 4 0 1 0 0-8 4 4 0 0 0 0 8z"/>
    </symbol>
    <symbol id="icon-Rating" viewBox="0 0 32 32">
      <path stroke-linecap="round" stroke-linejoin="round" stroke-width="2" d="m5.333 5.333 3.333 3.333M18 8.667a6.6 6.6 0 0 0-9.334 9.334M20 6.667 6.667 20m12 2.667v.013m-5.334-1.347v.013m4-4.013v.013m4-4.013v.013m-6.666 13.321v.013m8-8.013v.013m4-4.013v.013"/>
    </symbol>
    <symbol id="icon-Route" viewBox="0 0 32 32">
      <path d="M6.667 4a2.667 2.667 0 1 0 0 5.334 2.667 2.667 0 0 0 0-5.334zM1.333 6.667a5.333 5.333 0 1 1 10.666 0 5.333 5.333 0 0 1-10.666 0zm24 16a2.667 2.667 0 1 0 0 5.334 2.667 2.667 0 0 0 0-5.334zM20 25.333a5.333 5.333 0 1 1 10.667 0 5.333 5.333 0 0 1-10.667 0z"/>
      <path d="M13.333 6.667c0-.736.597-1.333 1.333-1.333h8.4c4.13 0 5.62 5.404 1.987 7.429L9.58 21.567a1.295 1.295 0 0 0 .686 2.434h7.067a1.333 1.333 0 0 1 0 2.666h-7.067c-4.13 0-5.619-5.404-1.987-7.429l15.473-8.804A1.295 1.295 0 0 0 23.066 8h-8.4a1.333 1.333 0 0 1-1.333-1.333z"/>
    </symbol>
    <symbol id="icon-Users" viewBox="0 0 32 32">
      <path d="M9.067 24.133h-4.4c-.267 0-.4-.133-.533-.267s-.267-.4-.133-.667c.8-2.267 2.8-3.6 5.067-3.6 2.8 0 5.067-2.4 5.067-5.2s-2.267-5.467-5.067-5.467c-2.8 0-5.067 2.4-5.067 5.333a5.69 5.69 0 0 0 1.333 3.6c-1.733.933-3.067 2.4-3.867 4.4-.267.933-.133 2.133.533 3.067s1.6 1.467 2.667 1.467h4.4c.8 0 1.333-.533 1.333-1.333s-.533-1.333-1.333-1.333zm-2.4-9.866c0-1.467 1.067-2.533 2.4-2.533s2.4 1.2 2.4 2.533c0 1.467-1.067 2.533-2.4 2.533s-2.4-1.2-2.4-2.533z"/>
      <path d="M30.533 21.467c-.933-2.533-2.8-4.4-4.933-5.467 1.2-1.067 1.867-2.667 1.867-4.533C27.467 8 24.8 5.2 21.6 5.2s-5.867 2.8-5.867 6.267A6.35 6.35 0 0 0 17.6 16c-2.133 1.067-4 2.933-4.933 5.467-.667 1.2-.4 2.533.267 3.6s1.867 1.6 3.067 1.6h11.067c1.2 0 2.4-.667 3.067-1.6.8-1.067.933-2.4.4-3.6zM18.267 11.6c0-2 1.467-3.6 3.2-3.6s3.2 1.6 3.2 3.6-1.467 3.6-3.2 3.6-3.2-1.733-3.2-3.6zm9.6 12c-.133.133-.4.533-.8.533H16c-.533 0-.8-.4-.8-.533-.133-.133-.4-.667-.133-1.2 1.067-2.8 3.733-4.667 6.533-4.667s5.467 1.867 6.533 4.667c.133.533-.133 1.067-.267 1.2z"/>
    </symbol>
    <symbol id="icon-Vertical-container-1" viewBox="0 0 32 32">
      <path stroke-linecap="round" stroke-linejoin="round" stroke-width="1.8" d="M24 26H8c-2.216 0-4-1.784-4-4V12c0-2.216 1.784-4 4-4h16c2.216 0 4 1.784 4 4v10c0 2.216-1.784 4-4 4zm-12 4h8M16 8l6-6m-6 6-6-6"/>
    </symbol>
    <symbol id="icon-Vertical-container" viewBox="0 0 32 32">
      <path d="m26.36 9.64.013-.013-4.96-4.96L20 6.08l2.813 2.813a3.324 3.324 0 0 0-1.17 5.464 3.333 3.333 0 0 0 2.357.976c.48 0 .92-.107 1.333-.28v9.613a1.335 1.335 0 0 1-2.277.943 1.335 1.335 0 0 1-.391-.943v-6a2.668 2.668 0 0 0-2.667-2.667h-1.333V6.666a2.668 2.668 0 0 0-2.667-2.667h-8a2.668 2.668 0 0 0-2.667 2.667v21.333h13.333v-10h2v6.667a3.333 3.333 0 1 0 6.667-.001V11.998c0-.92-.373-1.76-.973-2.36zM16 18v7.333H8V16h8v2zm0-4.667H8V6.666h8v6.667zm8 0a1.333 1.333 0 1 1-.002-2.665A1.333 1.333 0 0 1 24 13.333z"/>
    </symbol>
  </defs>
</svg>
